<svg class="main-svg" xmlns="http://www.w3.org/2000/svg" xmlns:xlink="http://www.w3.org/1999/xlink" width="700" height="450" style="" viewBox="0 0 700 450"><rect x="0" y="0" width="700" height="450" style="fill: rgb(255, 255, 255); fill-opacity: 1;"/><defs id="defs-e25b48"><g class="clips"><clipPath id="clipe25b48xyplot" class="plotclip"><rect width="580" height="330"/></clipPath><clipPath class="axesclip" id="clipe25b48x"><rect x="60" y="0" width="580" height="450"/></clipPath><clipPath class="axesclip" id="clipe25b48y"><rect x="0" y="60" width="700" height="330"/></clipPath><clipPath class="axesclip" id="clipe25b48xy"><rect x="60" y="60" width="580" height="330"/></clipPath></g><g class="gradients"/></defs><g class="bglayer"/><g class="layer-below"><g class="imagelayer"/><g class="shapelayer"/></g><g class="cartesianlayer"><g class="subplot xy"><g class="layer-subplot"><g class="shapelayer"/><g class="imagelayer"/></g><g class="gridlayer"><g class="x"><path class="xgrid crisp" transform="translate(183.45,0)" d="M0,60v330" style="stroke: rgb(238, 238, 238); stroke-opacity: 1; stroke-width: 1px;"/><path class="xgrid crisp" transform="translate(306.90999999999997,0)" d="M0,60v330" style="stroke: rgb(238, 238, 238); stroke-opacity: 1; stroke-width: 1px;"/><path class="xgrid crisp" transform="translate(430.36,0)" d="M0,60v330" style="stroke: rgb(238, 238, 238); stroke-opacity: 1; stroke-width: 1px;"/><path class="xgrid crisp" transform="translate(553.8199999999999,0)" d="M0,60v330" style="stroke: rgb(238, 238, 238); stroke-opacity: 1; stroke-width: 1px;"/></g><g class="y"><path class="ygrid crisp" transform="translate(0,354.15)" d="M60,0h580" style="stroke: rgb(238, 238, 238); stroke-opacity: 1; stroke-width: 1px;"/><path class="ygrid crisp" transform="translate(0,277.68)" d="M60,0h580" style="stroke: rgb(238, 238, 238); stroke-opacity: 1; stroke-width: 1px;"/><path class="ygrid crisp" transform="translate(0,201.22)" d="M60,0h580" style="stroke: rgb(238, 238, 238); stroke-opacity: 1; stroke-width: 1px;"/><path class="ygrid crisp" transform="translate(0,124.75)" d="M60,0h580" style="stroke: rgb(238, 238, 238); stroke-opacity: 1; stroke-width: 1px;"/></g></g><g class="zerolinelayer"><path class="xzl zl crisp" transform="translate(60,0)" d="M0,60v330" style="stroke: rgb(68, 68, 68); stroke-opacity: 1; stroke-width: 1px;"/></g><path class="xlines-below"/><path class="ylines-below"/><g class="overlines-below"/><g class="xaxislayer-below"/><g class="yaxislayer-below"/><g class="overaxes-below"/><g class="plot" transform="translate(60, 60)" clip-path="url(#clipe25b48xyplot)"><g class="scatterlayer mlayer"><g class="trace scatter trace11404f" style="stroke-miterlimit: 2; opacity: 1;"><g class="fills"/><g class="errorbars"/><g class="lines"><path class="js-line" d="M0,16.5L247.44,199.23L284.34,267.94L305.99,278.89L321.37,284.55L343.06,288.61L351.32,289.14L358.46,289.08L364.77,289.81L392.14,290.65L395.59,290.67L401.91,290.68L404.8,289.7L410.17,290.73L412.66,290.81L439.05,291.75L440.52,292.48L447.32,292.72L448.58,292.82L459.79,293.49L460.79,292.76L461.77,293.53L462.74,292.95L463.69,292.93L464.62,293.81L466.44,292.55L467.32,293.17L468.19,293.82L469.05,293.14L470.73,292.68L471.55,293.9L473.15,293.16L473.93,293.36L477.68,293.94L478.4,293.04L480.5,293.01L481.18,293.58L482.52,293.18L483.18,293.6L485.11,293.31L485.74,293.97L486.97,293.12L487.57,293.85L488.77,293.71L489.35,294.14L491.07,293.47L491.63,294.48L492.74,294.56L493.28,294.46L493.82,294.24L494.35,295.36L494.88,295.57L495.41,294.92L496.94,295.91L497.45,295.64L500.37,295.8L500.85,296.48L501.78,296.55L502.24,295.68L503.15,296.3L503.6,296.07L504.04,296.93L504.48,295.9L505.35,296.35L505.78,296.81L506.63,297.15L507.06,295.91L507.47,297.03L507.89,296.81L508.3,296.68L508.71,297.43L509.11,296.35L509.91,297.26L510.31,296.16L511.48,297.27L511.86,297.2L513.74,296.8L514.11,297.75L514.48,298.51L514.84,298.29L515.2,298.25L516.27,299.16L516.62,298.52L516.97,298.55L517.66,300.38L518,299.51L518.34,299.48L518.68,298.67L519.35,300.1L519.68,299.18L520.34,300.08L520.67,299.45L520.99,300.36L521.31,299.34L521.63,299.82L521.95,299.75L522.27,301.18L522.58,299.83L522.9,300.58L523.21,300.87L524.13,300.3L524.43,300.76L525.63,300.19L525.93,301.42L526.8,301.44L527.09,302.12L527.38,301.15L527.95,301.62L528.23,302.34L528.51,302.76L528.79,301.68L529.07,302.7L529.62,302.47L529.9,302.53L530.17,302.12L530.44,303.02L530.71,302.67L530.98,303.84L531.52,303.34L531.78,302.47L532.04,303.38L532.31,302.89L532.57,302.43L533.34,304.06L533.6,303.8L533.85,303.62L534.61,303.63L534.86,305.3L535.85,303.8L536.09,305.23L536.82,304.19L537.06,304.75L538.01,304.4L538.24,304.14L538.94,305.38L539.17,305.25L539.4,304.52L540.08,305.44L540.31,305.34L540.53,305.2L540.76,304.2L540.98,304.54L541.2,306.05L541.64,304.92L541.86,304.97L542.08,305.99L542.51,304.89L542.95,305.04L543.16,305.39L543.37,304.78L543.58,305.61L543.8,305.54L544.01,305.9L544.63,305L544.84,305.94L545.87,305.63L546.07,305.85L546.27,305.71L546.47,306.44L546.67,305.34L547.66,306.93L548.06,306.5L548.25,305.83L548.83,306.37L549.21,305.24L549.4,306.12L549.59,307.28L549.97,305.67L550.16,306.57L550.34,306.41L550.72,305.75L551.09,307.8L551.27,306.2L552.36,307.09L552.54,306.59L552.72,306.05L553.61,307.01L553.78,307.18L554.13,306.12L554.3,307.49L554.48,306.8L554.65,307.69L554.82,306.78L555.34,307.87L555.51,307.91L555.68,306.36L556.18,307.16L556.35,307.21L556.68,307.09L557.01,308.06L557.18,307.55L557.34,306.36L558.32,308.25L558.48,307.97L559.27,306.39L559.43,307.79L559.9,307.04L560.06,307.89L560.37,307.18L560.98,308.49L561.14,307.71L561.29,308.8L561.59,307.57L561.9,308.42L562.05,308.33L562.64,308.62L562.79,309.24L563.09,308.06L563.53,309.27L563.67,309.7L563.82,310.02L563.96,309.03L564.11,304.61L564.4,309.95L564.97,308.94L565.11,308.83L565.96,310.33L566.09,309.52L566.37,308.75L566.65,310.42L566.79,309.71L566.92,308.87L567.06,310.73L567.74,310.55L567.87,310.58L568.28,310.23L568.68,311.13L568.81,310.27L569.07,310.66L569.34,310.29L569.47,310.91L569.73,311.53L570.12,310.34L570.25,311.12L570.38,309.95L570.5,311.47L570.89,310.38L571.01,311.34L571.14,310.49L571.39,311.68L571.77,310.71L571.9,311.13L572.15,310.63L572.39,311.63L572.52,311.07L572.64,310.45L573.13,310.17L573.62,311.71L573.74,311.42L574.1,311.2L574.34,312.31L574.46,311.91L574.58,310.66L574.81,312.5L575.29,312.18L575.4,310.98L575.52,312.28L576.1,310.67L576.22,311.74L576.33,312.43L576.79,311.12L576.9,312.75L577.13,311.52L577.24,311.59L578.14,313.5L578.25,312.7L578.47,311.49L578.58,312.86L578.8,311.35L579.02,313.12L579.24,312.39L579.35,313.41L579.78,311.46L580,313.4" style="vector-effect: non-scaling-stroke; fill: none; stroke: rgb(31, 119, 180); stroke-opacity: 1; stroke-width: 2px; opacity: 1;"/></g><g class="points"/><g class="text"/></g></g></g><g class="overplot"/><path class="xlines-above crisp" d="M0,0" style="fill: none;"/><path class="ylines-above crisp" d="M0,0" style="fill: none;"/><g class="overlines-above"/><g class="xaxislayer-above"><g class="xtick"><text text-anchor="middle" x="0" y="403" transform="translate(60,0)" style="font-family: 'Open Sans', verdana, arial, sans-serif; font-size: 12px; fill: rgb(68, 68, 68); fill-opacity: 1; white-space: pre;">0</text></g><g class="xtick"><text text-anchor="middle" x="0" y="403" transform="translate(183.45,0)" style="font-family: 'Open Sans', verdana, arial, sans-serif; font-size: 12px; fill: rgb(68, 68, 68); fill-opacity: 1; white-space: pre;">1</text></g><g class="xtick"><text text-anchor="middle" x="0" y="403" transform="translate(306.90999999999997,0)" style="font-family: 'Open Sans', verdana, arial, sans-serif; font-size: 12px; fill: rgb(68, 68, 68); fill-opacity: 1; white-space: pre;">2</text></g><g class="xtick"><text text-anchor="middle" x="0" y="403" transform="translate(430.36,0)" style="font-family: 'Open Sans', verdana, arial, sans-serif; font-size: 12px; fill: rgb(68, 68, 68); fill-opacity: 1; white-space: pre;">3</text></g><g class="xtick"><text text-anchor="middle" x="0" y="403" transform="translate(553.8199999999999,0)" style="font-family: 'Open Sans', verdana, arial, sans-serif; font-size: 12px; fill: rgb(68, 68, 68); fill-opacity: 1; white-space: pre;">4</text></g></g><g class="yaxislayer-above"><g class="ytick"><text text-anchor="end" x="59" y="4.199999999999999" transform="translate(0,354.15)" style="font-family: 'Open Sans', verdana, arial, sans-serif; font-size: 12px; fill: rgb(68, 68, 68); fill-opacity: 1; white-space: pre;">0.5</text></g><g class="ytick"><text text-anchor="end" x="59" y="4.199999999999999" transform="translate(0,277.68)" style="font-family: 'Open Sans', verdana, arial, sans-serif; font-size: 12px; fill: rgb(68, 68, 68); fill-opacity: 1; white-space: pre;">1</text></g><g class="ytick"><text text-anchor="end" x="59" y="4.199999999999999" transform="translate(0,201.22)" style="font-family: 'Open Sans', verdana, arial, sans-serif; font-size: 12px; fill: rgb(68, 68, 68); fill-opacity: 1; white-space: pre;">1.5</text></g><g class="ytick"><text text-anchor="end" x="59" y="4.199999999999999" transform="translate(0,124.75)" style="font-family: 'Open Sans', verdana, arial, sans-serif; font-size: 12px; fill: rgb(68, 68, 68); fill-opacity: 1; white-space: pre;">2</text></g></g><g class="overaxes-above"/></g></g><g class="polarlayer"/><g class="ternarylayer"/><g class="geolayer"/><g class="pielayer"/><g class="glimages"/><defs id="topdefs-e25b48"><g class="clips"/></defs><g class="layer-above"><g class="imagelayer"/><g class="shapelayer"/></g><g class="infolayer"><g class="g-gtitle"/><g class="g-xtitle"/><g class="g-ytitle"/></g></svg>