<svg class="main-svg" xmlns="http://www.w3.org/2000/svg" xmlns:xlink="http://www.w3.org/1999/xlink" width="700" height="450" style="" viewBox="0 0 700 450"><rect x="0" y="0" width="700" height="450" style="fill: rgb(255, 255, 255); fill-opacity: 1;"/><defs id="defs-cfe287"><g class="clips"><clipPath id="clipcfe287xyplot" class="plotclip"><rect width="580" height="330"/></clipPath><clipPath class="axesclip" id="clipcfe287x"><rect x="60" y="0" width="580" height="450"/></clipPath><clipPath class="axesclip" id="clipcfe287y"><rect x="0" y="60" width="700" height="330"/></clipPath><clipPath class="axesclip" id="clipcfe287xy"><rect x="60" y="60" width="580" height="330"/></clipPath></g><g class="gradients"/></defs><g class="bglayer"/><g class="layer-below"><g class="imagelayer"/><g class="shapelayer"/></g><g class="cartesianlayer"><g class="subplot xy"><g class="layer-subplot"><g class="shapelayer"/><g class="imagelayer"/></g><g class="gridlayer"><g class="x"><path class="xgrid crisp" transform="translate(176.23000000000002,0)" d="M0,60v330" style="stroke: rgb(238, 238, 238); stroke-opacity: 1; stroke-width: 1px;"/><path class="xgrid crisp" transform="translate(292.46000000000004,0)" d="M0,60v330" style="stroke: rgb(238, 238, 238); stroke-opacity: 1; stroke-width: 1px;"/><path class="xgrid crisp" transform="translate(408.7,0)" d="M0,60v330" style="stroke: rgb(238, 238, 238); stroke-opacity: 1; stroke-width: 1px;"/><path class="xgrid crisp" transform="translate(524.9300000000001,0)" d="M0,60v330" style="stroke: rgb(238, 238, 238); stroke-opacity: 1; stroke-width: 1px;"/></g><g class="y"><path class="ygrid crisp" transform="translate(0,353.62)" d="M60,0h580" style="stroke: rgb(238, 238, 238); stroke-opacity: 1; stroke-width: 1px;"/><path class="ygrid crisp" transform="translate(0,277.34000000000003)" d="M60,0h580" style="stroke: rgb(238, 238, 238); stroke-opacity: 1; stroke-width: 1px;"/><path class="ygrid crisp" transform="translate(0,201.06)" d="M60,0h580" style="stroke: rgb(238, 238, 238); stroke-opacity: 1; stroke-width: 1px;"/><path class="ygrid crisp" transform="translate(0,124.78)" d="M60,0h580" style="stroke: rgb(238, 238, 238); stroke-opacity: 1; stroke-width: 1px;"/></g></g><g class="zerolinelayer"><path class="xzl zl crisp" transform="translate(60,0)" d="M0,60v330" style="stroke: rgb(68, 68, 68); stroke-opacity: 1; stroke-width: 1px;"/></g><path class="xlines-below"/><path class="ylines-below"/><g class="overlines-below"/><g class="xaxislayer-below"/><g class="yaxislayer-below"/><g class="overaxes-below"/><g class="plot" transform="translate(60, 60)" clip-path="url(#clipcfe287xyplot)"><g class="scatterlayer mlayer"><g class="trace scatter trace5d1478" style="stroke-miterlimit: 2; opacity: 1;"><g class="fills"/><g class="errorbars"/><g class="lines"><path class="js-line" d="M0,16.5L1.16,198.83L2.32,260.3L4.65,282.59L5.81,286.07L8.14,288.48L9.3,289.1L26.73,291.52L27.9,292.04L30.22,292.5L31.38,292.34L33.71,292.99L34.87,293.14L39.52,294.13L40.68,293.96L51.14,296.12L52.3,297.16L53.47,296.2L54.63,296.3L58.12,296.57L59.28,298.21L61.6,298.38L62.77,298.76L66.25,298.65L67.41,298.82L68.58,298.52L69.74,299.44L72.06,299.64L73.23,299.11L79.04,300.61L80.2,299.84L83.69,300.41L84.85,300.21L86.01,299.81L87.17,301.05L103.45,301.06L104.61,300.3L106.93,300.69L108.1,300.53L109.26,301.77L110.42,300.86L111.58,301.59L112.75,301.06L116.23,300.68L117.39,301.3L122.04,301.77L123.21,302L125.53,301.67L126.69,302.46L129.02,301.82L130.18,302.13L131.34,302.31L132.51,301.51L133.67,302.28L134.83,302.12L138.32,302.17L139.48,302.8L141.8,302.64L142.97,303.35L144.13,303.36L145.29,302.55L148.78,304.01L149.94,303.01L151.1,302.02L152.26,303.1L153.43,304.06L154.59,303.45L155.75,304.31L156.91,303.38L158.08,304.73L159.24,303.27L160.4,304.33L161.56,304.27L162.73,304.18L163.89,305.24L166.21,304.91L167.37,304.7L168.54,305.33L169.7,304.3L172.02,304.64L173.19,304.04L175.51,305.84L176.67,305.77L179,305.71L180.16,305.78L182.48,305.87L183.65,304.99L185.97,306.04L187.13,305.99L190.62,306.04L191.78,305.51L192.95,306.24L194.11,305.51L195.27,306.7L196.43,305.14L197.6,306.56L198.76,306.58L201.08,305.63L202.24,306.53L204.57,306.34L205.73,306.42L208.06,307.16L209.22,307.01L211.54,306.18L212.71,306.69L215.03,306.19L216.19,307.71L218.52,306.98L219.68,307.5L220.84,306.45L222,306.99L223.17,306.5L224.33,307.88L225.49,306.42L226.65,307.55L230.14,307.09L231.3,307.98L233.63,307.23L234.79,307.35L239.44,307.56L240.6,307.26L247.58,307.46L248.74,306.1L249.9,308L251.06,308.18L252.22,308.39L253.39,307.45L260.36,308.21L261.52,308.16L267.33,307.84L268.5,309.13L271.98,307.74L273.15,308.16L275.47,307.35L276.63,308.7L280.12,308.18L281.28,309.03L282.44,308.63L283.61,307.34L284.77,308.71L285.93,308.46L287.09,308.06L288.26,309.07L289.42,308.56L290.58,309.85L291.74,308.77L292.91,309.25L296.39,308.93L297.56,308.52L303.37,309.71L304.53,309.23L308.02,310.12L309.18,309.62L313.83,308.97L314.99,309.87L319.64,308.83L320.8,309.66L323.13,309.48L324.29,306.51L325.45,310.09L326.61,310.31L327.78,309.67L328.94,310.48L330.1,309.59L331.26,310.33L333.59,310.24L334.75,310.23L335.91,309.55L337.07,309.89L338.24,310.7L339.4,310.48L340.56,308.8L341.72,309.87L342.89,309.65L344.05,310.85L349.86,310.26L351.02,310.12L352.18,308.83L353.35,310.99L354.51,310.77L355.67,309.77L358,310.58L359.16,310.25L360.32,310.77L361.48,309.73L362.65,310.81L363.81,310.75L366.13,309.99L367.29,310.7L375.43,310.57L376.59,309.28L377.76,310.79L378.92,310.81L381.24,311.11L382.4,310.41L384.73,310.24L385.89,311.24L387.05,310.13L388.22,310.75L402.16,311.02L403.33,311.8L405.65,311.1L406.81,311.9L407.98,310.58L409.14,311.36L410.3,310.12L411.46,311.43L412.63,311.05L413.79,311.61L418.44,310.91L419.6,311.67L420.76,310.91L421.92,311.16L424.25,311.47L425.41,311.69L427.74,311.42L428.9,311.35L430.06,311.97L431.22,310.33L432.38,311.49L433.55,310.34L434.71,311.39L435.87,311.25L438.2,311.84L439.36,311.69L440.52,310.92L441.68,311.22L442.85,311.83L444.01,311.25L445.17,310.9L446.33,311.6L447.49,310.96L448.66,311.85L449.82,312.21L450.98,311.27L453.31,311.28L454.47,312.46L456.79,311.76L457.96,311.11L462.61,312.3L463.77,308.73L464.93,311.9L466.09,312.07L473.07,312.2L474.23,311.31L476.55,311.38L477.72,311.64L480.04,311.62L481.2,311.52L485.85,311.79L487.01,311.48L488.18,309.31L489.34,311.98L490.5,312.67L491.66,312.16L493.99,311.96L495.15,312.89L496.31,311.82L497.47,311.97L499.8,312.21L500.96,312.95L502.12,311.52L503.29,312.48L504.45,311.59L505.61,312.18L513.75,312.7L514.91,310.29L517.23,312.35L518.4,312.12L519.56,312.96L520.72,312.08L526.53,312.79L527.7,309.67L528.86,311.94L530.02,312.42L531.18,312.23L532.34,310.68L533.51,312.6L534.67,312.59L539.32,312.94L540.48,312.66L541.64,313.5L542.81,312.79L545.13,312.29L546.29,313.35L550.94,312.06L552.1,312.87L560.24,312.18L561.4,312.84L562.57,310.84L563.73,312.72L564.89,313.33L566.05,312.46L568.38,313.48L569.54,313.1L571.86,312.78L573.03,312.29L574.19,310.96L575.35,313.48L576.51,312.53L577.68,313.2L580,313.2" style="vector-effect: non-scaling-stroke; fill: none; stroke: rgb(31, 119, 180); stroke-opacity: 1; stroke-width: 2px; opacity: 1;"/></g><g class="points"/><g class="text"/></g></g></g><g class="overplot"/><path class="xlines-above crisp" d="M0,0" style="fill: none;"/><path class="ylines-above crisp" d="M0,0" style="fill: none;"/><g class="overlines-above"/><g class="xaxislayer-above"><g class="xtick"><text text-anchor="middle" x="0" y="403" transform="translate(60,0)" style="font-family: 'Open Sans', verdana, arial, sans-serif; font-size: 12px; fill: rgb(68, 68, 68); fill-opacity: 1; white-space: pre;">0</text></g><g class="xtick"><text text-anchor="middle" x="0" y="403" transform="translate(176.23000000000002,0)" style="font-family: 'Open Sans', verdana, arial, sans-serif; font-size: 12px; fill: rgb(68, 68, 68); fill-opacity: 1; white-space: pre;">10k</text></g><g class="xtick"><text text-anchor="middle" x="0" y="403" transform="translate(292.46000000000004,0)" style="font-family: 'Open Sans', verdana, arial, sans-serif; font-size: 12px; fill: rgb(68, 68, 68); fill-opacity: 1; white-space: pre;">20k</text></g><g class="xtick"><text text-anchor="middle" x="0" y="403" transform="translate(408.7,0)" style="font-family: 'Open Sans', verdana, arial, sans-serif; font-size: 12px; fill: rgb(68, 68, 68); fill-opacity: 1; white-space: pre;">30k</text></g><g class="xtick"><text text-anchor="middle" x="0" y="403" transform="translate(524.9300000000001,0)" style="font-family: 'Open Sans', verdana, arial, sans-serif; font-size: 12px; fill: rgb(68, 68, 68); fill-opacity: 1; white-space: pre;">40k</text></g></g><g class="yaxislayer-above"><g class="ytick"><text text-anchor="end" x="59" y="4.199999999999999" transform="translate(0,353.62)" style="font-family: 'Open Sans', verdana, arial, sans-serif; font-size: 12px; fill: rgb(68, 68, 68); fill-opacity: 1; white-space: pre;">0.5</text></g><g class="ytick"><text text-anchor="end" x="59" y="4.199999999999999" transform="translate(0,277.34000000000003)" style="font-family: 'Open Sans', verdana, arial, sans-serif; font-size: 12px; fill: rgb(68, 68, 68); fill-opacity: 1; white-space: pre;">1</text></g><g class="ytick"><text text-anchor="end" x="59" y="4.199999999999999" transform="translate(0,201.06)" style="font-family: 'Open Sans', verdana, arial, sans-serif; font-size: 12px; fill: rgb(68, 68, 68); fill-opacity: 1; white-space: pre;">1.5</text></g><g class="ytick"><text text-anchor="end" x="59" y="4.199999999999999" transform="translate(0,124.78)" style="font-family: 'Open Sans', verdana, arial, sans-serif; font-size: 12px; fill: rgb(68, 68, 68); fill-opacity: 1; white-space: pre;">2</text></g></g><g class="overaxes-above"/></g></g><g class="polarlayer"/><g class="ternarylayer"/><g class="geolayer"/><g class="pielayer"/><g class="glimages"/><defs id="topdefs-cfe287"><g class="clips"/></defs><g class="layer-above"><g class="imagelayer"/><g class="shapelayer"/></g><g class="infolayer"><g class="g-gtitle"/><g class="g-xtitle"/><g class="g-ytitle"/></g></svg>