<svg class="main-svg" xmlns="http://www.w3.org/2000/svg" xmlns:xlink="http://www.w3.org/1999/xlink" width="700" height="450" style="" viewBox="0 0 700 450"><rect x="0" y="0" width="700" height="450" style="fill: rgb(255, 255, 255); fill-opacity: 1;"/><defs id="defs-4f4c5a"><g class="clips"><clipPath id="clip4f4c5axyplot" class="plotclip"><rect width="580" height="330"/></clipPath><clipPath class="axesclip" id="clip4f4c5ax"><rect x="60" y="0" width="580" height="450"/></clipPath><clipPath class="axesclip" id="clip4f4c5ay"><rect x="0" y="60" width="700" height="330"/></clipPath><clipPath class="axesclip" id="clip4f4c5axy"><rect x="60" y="60" width="580" height="330"/></clipPath></g><g class="gradients"/></defs><g class="bglayer"/><g class="layer-below"><g class="imagelayer"/><g class="shapelayer"/></g><g class="cartesianlayer"><g class="subplot xy"><g class="layer-subplot"><g class="shapelayer"/><g class="imagelayer"/></g><g class="gridlayer"><g class="x"><path class="xgrid crisp" transform="translate(120.07,0)" d="M0,60v330" style="stroke: rgb(238, 238, 238); stroke-opacity: 1; stroke-width: 1px;"/><path class="xgrid crisp" transform="translate(218.5,0)" d="M0,60v330" style="stroke: rgb(238, 238, 238); stroke-opacity: 1; stroke-width: 1px;"/><path class="xgrid crisp" transform="translate(316.94,0)" d="M0,60v330" style="stroke: rgb(238, 238, 238); stroke-opacity: 1; stroke-width: 1px;"/><path class="xgrid crisp" transform="translate(415.37,0)" d="M0,60v330" style="stroke: rgb(238, 238, 238); stroke-opacity: 1; stroke-width: 1px;"/><path class="xgrid crisp" transform="translate(513.81,0)" d="M0,60v330" style="stroke: rgb(238, 238, 238); stroke-opacity: 1; stroke-width: 1px;"/><path class="xgrid crisp" transform="translate(612.24,0)" d="M0,60v330" style="stroke: rgb(238, 238, 238); stroke-opacity: 1; stroke-width: 1px;"/></g><g class="y"><path class="ygrid crisp" transform="translate(0,381.65)" d="M60,0h580" style="stroke: rgb(238, 238, 238); stroke-opacity: 1; stroke-width: 1px;"/><path class="ygrid crisp" transform="translate(0,344.93)" d="M60,0h580" style="stroke: rgb(238, 238, 238); stroke-opacity: 1; stroke-width: 1px;"/><path class="ygrid crisp" transform="translate(0,308.21000000000004)" d="M60,0h580" style="stroke: rgb(238, 238, 238); stroke-opacity: 1; stroke-width: 1px;"/><path class="ygrid crisp" transform="translate(0,271.5)" d="M60,0h580" style="stroke: rgb(238, 238, 238); stroke-opacity: 1; stroke-width: 1px;"/><path class="ygrid crisp" transform="translate(0,234.78)" d="M60,0h580" style="stroke: rgb(238, 238, 238); stroke-opacity: 1; stroke-width: 1px;"/><path class="ygrid crisp" transform="translate(0,198.06)" d="M60,0h580" style="stroke: rgb(238, 238, 238); stroke-opacity: 1; stroke-width: 1px;"/><path class="ygrid crisp" transform="translate(0,161.34)" d="M60,0h580" style="stroke: rgb(238, 238, 238); stroke-opacity: 1; stroke-width: 1px;"/><path class="ygrid crisp" transform="translate(0,124.63)" d="M60,0h580" style="stroke: rgb(238, 238, 238); stroke-opacity: 1; stroke-width: 1px;"/><path class="ygrid crisp" transform="translate(0,87.91)" d="M60,0h580" style="stroke: rgb(238, 238, 238); stroke-opacity: 1; stroke-width: 1px;"/></g></g><g class="zerolinelayer"/><path class="xlines-below"/><path class="ylines-below"/><g class="overlines-below"/><g class="xaxislayer-below"/><g class="yaxislayer-below"/><g class="overaxes-below"/><g class="plot" transform="translate(60, 60)" clip-path="url(#clip4f4c5axyplot)"><g class="scatterlayer mlayer"><g class="trace scatter traced8ace5" style="stroke-miterlimit: 2; opacity: 1;"><g class="fills"/><g class="errorbars"/><g class="lines"><path class="js-line" d="M-1711.77,-1158.41L-725.29,-280.95L-578.19,3.13L-491.88,81.36L-430.56,116.04L-344.07,138.72L-311.17,145.9L-235.03,151.68L-214.67,154.06L-134.64,157.19L-121.69,157.24L-97.93,158.45L-86.97,158.97L-76.55,158.45L-66.61,160.22L-57.11,161.52L-48.02,157.4L-39.3,159.14L-30.92,159.47L-15.08,159.55L-7.58,159.98L13.45,160.58L20.03,161.41L26.41,161.95L32.6,164.09L38.62,168.22L44.47,168.33L55.72,170.82L61.13,173.22L66.41,174.43L71.56,178.06L76.59,177.55L81.5,175.76L86.3,176.34L91,178.1L100.1,178.25L104.5,181.22L108.82,180.46L113.05,176.7L121.27,176.76L125.27,182.44L129.19,180.77L133.04,182.87L136.82,175.91L140.54,164.2L144.19,172.36L147.78,172.32L151.32,172.98L154.79,175.28L158.21,176.08L161.58,178.11L164.89,176.2L168.15,178.75L171.37,175.43L174.53,177.27L177.65,179.05L180.73,179.65L183.76,178.52L186.75,181.15L189.7,179.66L192.61,183.98L198.31,186.61L201.1,185.88L203.86,187.6L206.58,191.84L209.27,188.3L211.92,189.04L214.54,187.76L217.14,189.48L219.7,191.39L222.22,192.17L224.72,193.81L227.2,190.75L229.64,191.43L232.05,194.17L236.8,191.36L239.14,198.42L241.45,196.14L243.73,196.08L246,192.9L248.23,196.56L250.45,198.24L252.64,201.38L254.81,200.55L256.96,196.5L259.09,200.83L261.19,202.56L265.34,203.77L267.39,202.47L269.41,202.22L271.42,205.56L273.41,200.68L275.38,202.64L277.33,207.65L279.26,209.49L281.18,206.7L283.08,209.1L284.96,207.13L286.83,210.7L292.33,208.53L294.14,206.68L295.93,213.41L297.7,213.41L299.46,212.67L301.2,214.89L302.94,209.89L304.65,211.78L308.04,218.87L309.72,214.26L313.03,220.27L314.67,221.31L316.3,215.99L317.91,218.41L319.51,220.4L321.1,215.19L322.68,220.83L324.24,220.2L325.8,216.19L327.34,218.82L330.4,224.44L331.91,221.93L334.89,226.52L336.37,223.4L337.84,226.82L339.3,226.37L340.75,225.75L342.19,224.26L343.62,224.17L345.04,223.25L346.45,231.72L347.85,230.38L349.25,221.89L350.63,227.57L352,231.91L353.37,231.96L354.73,229.07L356.07,231.15L357.41,230.14L358.75,231.96L360.07,231.85L361.38,234.42L362.69,231.7L363.99,234.17L365.28,232.22L366.57,233.24L367.84,231.05L369.11,232.1L370.37,235.28L371.63,232.76L374.11,241.09L375.34,241.24L376.57,227.09L377.79,237.27L379,234.9L380.2,239.77L381.4,237.49L382.59,224.7L383.77,235.55L384.95,235.74L387.29,231.98L388.45,236.65L390.74,236.11L391.88,238.53L393.02,231.04L394.15,241.98L396.38,231.05L397.49,233.4L398.6,237.48L399.7,235.33L400.79,238.06L401.88,234.13L402.96,240.29L404.04,228.58L406.17,237.72L407.24,240.47L408.29,237.66L409.34,243.98L410.39,242.67L411.43,238.64L412.46,234.31L413.49,243.12L414.52,241.05L415.54,241.92L416.55,239.41L417.56,246.11L418.57,240.01L419.57,242.85L420.57,237.18L421.56,239.39L422.55,243.17L423.53,237.73L424.51,235.54L425.48,236.5L426.45,244.85L427.41,235.34L428.37,242.73L429.33,238.8L431.23,239.47L432.17,239.2L433.11,242.11L434.05,242.56L435.91,243.16L436.83,240.75L437.75,240.41L438.67,247.74L439.58,235.32L440.49,245.62L441.39,241.35L442.29,243.35L443.19,246.88L444.08,244.1L445.85,230.91L446.73,238.71L448.49,249.69L449.36,241.89L450.22,246.09L451.09,242.53L452.8,252.3L453.66,241.05L454.51,243.83L455.35,249.2L456.2,245.62L457.04,248.71L457.87,243.8L458.71,246.87L459.54,244.03L460.36,247.86L461.19,257.6L462.01,251.66L462.82,252.96L463.64,252.47L464.45,258.51L465.26,253.2L466.06,244.39L466.86,254.37L467.66,253.22L468.46,254.91L469.25,254.47L470.04,252.31L470.83,251.46L471.61,252.88L472.4,253.22L473.18,257.82L473.95,253.36L474.72,261.53L476.26,250.81L477.03,255.67L477.79,254.22L478.55,260L479.3,258.26L480.06,254.46L480.81,261.91L481.56,256.03L482.3,174.58L483.05,207.71L484.53,222.86L485.26,224.36L486,232.79L486.73,229.57L487.45,234.95L488.18,232.54L489.62,241.75L490.34,239.67L491.06,239.19L491.77,239.75L492.48,237.58L493.19,242.08L493.9,241.9L494.6,236.86L496.01,248.09L496.7,240.64L498.78,251.1L499.47,245.32L500.16,248.35L500.84,255.05L501.52,250.38L502.2,250.6L502.88,260.31L504.23,250.45L504.9,249.4L505.57,252.76L506.23,250.85L507.56,251.53L508.22,254.63L508.88,247.29L509.54,253.19L510.19,255.33L510.85,254.92L511.5,254.92L512.14,261.07L514.08,253.03L514.72,251.15L515.36,260.42L516,254.24L517.26,258.4L517.9,251.81L519.15,260.71L519.78,255.56L520.4,251.78L521.03,265.26L521.65,251.18L522.26,258.76L522.88,258.63L523.5,257.53L524.72,251.89L525.33,259.21L525.94,257.44L526.55,260.23L527.15,262.94L527.75,256.99L528.35,253.99L528.95,259.92L529.55,258.57L530.15,259.79L530.74,260.35L531.34,262.51L532.52,251.26L533.1,248.61L533.69,258.72L534.28,254.42L534.86,255.5L535.44,244.04L536.02,253.67L536.6,244.2L537.18,233.52L537.75,245.22L539.47,223.21L540.04,109.54L541.17,175.82L541.74,186.69L543.42,197.66L543.98,196.36L545.65,191.58L546.2,187.37L546.75,177.39L547.3,179.12L547.85,186.97L548.4,197.75L548.94,195.68L549.49,184.69L551.12,201.8L551.65,198.13L552.19,209.69L552.73,209.09L553.26,211.89L554.33,212.24L554.86,213.82L555.39,202.32L555.92,211.49L556.45,211.38L556.97,205.68L558.02,184.12L558.54,189.54L559.06,199.47L559.58,166.8L560.1,156.42L560.62,171.79L562.16,162.72L562.67,169.83L563.18,161.54L563.69,175.46L564.71,179.94L565.21,178.81L565.72,183.13L566.22,178.6L566.72,184.96L567.22,183.54L567.72,184.69L568.22,184.5L568.72,185.58L569.71,188.4L570.21,184.7L570.7,188.51L571.19,186.36L572.17,192.46L572.66,194.51L573.15,193.27L573.64,197.97L575.09,205.19L575.57,197.42L576.05,204.03L576.53,203.52L577.01,204.65L577.49,204.27L577.96,200.1L578.44,201.15L578.91,205.7L579.39,204.67L579.86,183.22L580.33,204.14L580.8,201.02L581.27,204.12L581.74,202.56L582.21,203.29L582.67,206.57L583.14,210.97L583.6,207.02L584.53,202.23L584.99,202.92L585.45,202.75L586.36,192.65L586.82,199.44L587.73,198.67L588.19,204.15L588.64,201.98L589.09,192.14L589.54,172.73L590,181.16L590.44,186.89L590.89,181.8L591.34,198L591.79,188.5L592.23,196.26L592.68,199.07L593.57,192.13L594.01,196.47L594.89,205.3L595.33,204.19L595.77,203.69L596.2,203.9L596.64,205.56L597.08,204.77L597.51,209.2L597.95,201.99L598.38,208.83L598.81,204.31L599.24,200.52L599.67,205.55L600.1,207.87L600.53,203.52" style="vector-effect: non-scaling-stroke; fill: none; stroke: rgb(31, 119, 180); stroke-opacity: 1; stroke-width: 2px; opacity: 1;"/></g><g class="points"/><g class="text"/></g></g></g><g class="overplot"/><path class="xlines-above crisp" d="M0,0" style="fill: none;"/><path class="ylines-above crisp" d="M0,0" style="fill: none;"/><g class="overlines-above"/><g class="xaxislayer-above"><g class="xtick"><text text-anchor="middle" x="0" y="403" transform="translate(120.07,0)" style="font-family: 'Open Sans', verdana, arial, sans-serif; font-size: 12px; fill: rgb(68, 68, 68); fill-opacity: 1; white-space: pre;">3.6</text></g><g class="xtick"><text text-anchor="middle" x="0" y="403" transform="translate(218.5,0)" style="font-family: 'Open Sans', verdana, arial, sans-serif; font-size: 12px; fill: rgb(68, 68, 68); fill-opacity: 1; white-space: pre;">3.8</text></g><g class="xtick"><text text-anchor="middle" x="0" y="403" transform="translate(316.94,0)" style="font-family: 'Open Sans', verdana, arial, sans-serif; font-size: 12px; fill: rgb(68, 68, 68); fill-opacity: 1; white-space: pre;">4</text></g><g class="xtick"><text text-anchor="middle" x="0" y="403" transform="translate(415.37,0)" style="font-family: 'Open Sans', verdana, arial, sans-serif; font-size: 12px; fill: rgb(68, 68, 68); fill-opacity: 1; white-space: pre;">4.2</text></g><g class="xtick"><text text-anchor="middle" x="0" y="403" transform="translate(513.81,0)" style="font-family: 'Open Sans', verdana, arial, sans-serif; font-size: 12px; fill: rgb(68, 68, 68); fill-opacity: 1; white-space: pre;">4.4</text></g><g class="xtick"><text text-anchor="middle" x="0" y="403" transform="translate(612.24,0)" style="font-family: 'Open Sans', verdana, arial, sans-serif; font-size: 12px; fill: rgb(68, 68, 68); fill-opacity: 1; white-space: pre;">4.6</text></g></g><g class="yaxislayer-above"><g class="ytick"><text text-anchor="end" x="59" y="4.199999999999999" transform="translate(0,381.65)" style="font-family: 'Open Sans', verdana, arial, sans-serif; font-size: 12px; fill: rgb(68, 68, 68); fill-opacity: 1; white-space: pre;">0.3</text></g><g class="ytick"><text text-anchor="end" x="59" y="4.199999999999999" transform="translate(0,344.93)" style="font-family: 'Open Sans', verdana, arial, sans-serif; font-size: 12px; fill: rgb(68, 68, 68); fill-opacity: 1; white-space: pre;">0.35</text></g><g class="ytick"><text text-anchor="end" x="59" y="4.199999999999999" transform="translate(0,308.21000000000004)" style="font-family: 'Open Sans', verdana, arial, sans-serif; font-size: 12px; fill: rgb(68, 68, 68); fill-opacity: 1; white-space: pre;">0.4</text></g><g class="ytick"><text text-anchor="end" x="59" y="4.199999999999999" transform="translate(0,271.5)" style="font-family: 'Open Sans', verdana, arial, sans-serif; font-size: 12px; fill: rgb(68, 68, 68); fill-opacity: 1; white-space: pre;">0.45</text></g><g class="ytick"><text text-anchor="end" x="59" y="4.199999999999999" transform="translate(0,234.78)" style="font-family: 'Open Sans', verdana, arial, sans-serif; font-size: 12px; fill: rgb(68, 68, 68); fill-opacity: 1; white-space: pre;">0.5</text></g><g class="ytick"><text text-anchor="end" x="59" y="4.199999999999999" transform="translate(0,198.06)" style="font-family: 'Open Sans', verdana, arial, sans-serif; font-size: 12px; fill: rgb(68, 68, 68); fill-opacity: 1; white-space: pre;">0.55</text></g><g class="ytick"><text text-anchor="end" x="59" y="4.199999999999999" transform="translate(0,161.34)" style="font-family: 'Open Sans', verdana, arial, sans-serif; font-size: 12px; fill: rgb(68, 68, 68); fill-opacity: 1; white-space: pre;">0.6</text></g><g class="ytick"><text text-anchor="end" x="59" y="4.199999999999999" transform="translate(0,124.63)" style="font-family: 'Open Sans', verdana, arial, sans-serif; font-size: 12px; fill: rgb(68, 68, 68); fill-opacity: 1; white-space: pre;">0.65</text></g><g class="ytick"><text text-anchor="end" x="59" y="4.199999999999999" transform="translate(0,87.91)" style="font-family: 'Open Sans', verdana, arial, sans-serif; font-size: 12px; fill: rgb(68, 68, 68); fill-opacity: 1; white-space: pre;">0.7</text></g></g><g class="overaxes-above"/></g></g><g class="polarlayer"/><g class="ternarylayer"/><g class="geolayer"/><g class="pielayer"/><g class="glimages"/><defs id="topdefs-4f4c5a"><g class="clips"/></defs><g class="layer-above"><g class="imagelayer"/><g class="shapelayer"/></g><g class="infolayer"><g class="g-gtitle"/><g class="g-xtitle"/><g class="g-ytitle"/></g></svg>