<svg class="main-svg" xmlns="http://www.w3.org/2000/svg" xmlns:xlink="http://www.w3.org/1999/xlink" width="700" height="450" style="" viewBox="0 0 700 450"><rect x="0" y="0" width="700" height="450" style="fill: rgb(255, 255, 255); fill-opacity: 1;"/><defs id="defs-c294c5"><g class="clips"><clipPath id="clipc294c5xyplot" class="plotclip"><rect width="580" height="330"/></clipPath><clipPath class="axesclip" id="clipc294c5x"><rect x="60" y="0" width="580" height="450"/></clipPath><clipPath class="axesclip" id="clipc294c5y"><rect x="0" y="60" width="700" height="330"/></clipPath><clipPath class="axesclip" id="clipc294c5xy"><rect x="60" y="60" width="580" height="330"/></clipPath></g><g class="gradients"/></defs><g class="bglayer"/><g class="layer-below"><g class="imagelayer"/><g class="shapelayer"/></g><g class="cartesianlayer"><g class="subplot xy"><g class="layer-subplot"><g class="shapelayer"/><g class="imagelayer"/></g><g class="gridlayer"><g class="x"><path class="xgrid crisp" transform="translate(183.45,0)" d="M0,60v330" style="stroke: rgb(238, 238, 238); stroke-opacity: 1; stroke-width: 1px;"/><path class="xgrid crisp" transform="translate(306.90999999999997,0)" d="M0,60v330" style="stroke: rgb(238, 238, 238); stroke-opacity: 1; stroke-width: 1px;"/><path class="xgrid crisp" transform="translate(430.36,0)" d="M0,60v330" style="stroke: rgb(238, 238, 238); stroke-opacity: 1; stroke-width: 1px;"/><path class="xgrid crisp" transform="translate(553.8199999999999,0)" d="M0,60v330" style="stroke: rgb(238, 238, 238); stroke-opacity: 1; stroke-width: 1px;"/></g><g class="y"><path class="ygrid crisp" transform="translate(0,353.62)" d="M60,0h580" style="stroke: rgb(238, 238, 238); stroke-opacity: 1; stroke-width: 1px;"/><path class="ygrid crisp" transform="translate(0,277.34000000000003)" d="M60,0h580" style="stroke: rgb(238, 238, 238); stroke-opacity: 1; stroke-width: 1px;"/><path class="ygrid crisp" transform="translate(0,201.06)" d="M60,0h580" style="stroke: rgb(238, 238, 238); stroke-opacity: 1; stroke-width: 1px;"/><path class="ygrid crisp" transform="translate(0,124.78)" d="M60,0h580" style="stroke: rgb(238, 238, 238); stroke-opacity: 1; stroke-width: 1px;"/></g></g><g class="zerolinelayer"><path class="xzl zl crisp" transform="translate(60,0)" d="M0,60v330" style="stroke: rgb(68, 68, 68); stroke-opacity: 1; stroke-width: 1px;"/></g><path class="xlines-below"/><path class="ylines-below"/><g class="overlines-below"/><g class="xaxislayer-below"/><g class="yaxislayer-below"/><g class="overaxes-below"/><g class="plot" transform="translate(60, 60)" clip-path="url(#clipc294c5xyplot)"><g class="scatterlayer mlayer"><g class="trace scatter trace8e4980" style="stroke-miterlimit: 2; opacity: 1;"><g class="fills"/><g class="errorbars"/><g class="lines"><path class="js-line" d="M0,16.5L247.44,198.83L284.34,260.3L305.99,276.16L321.37,282.59L333.31,286.07L343.06,287.67L370.42,289.65L375.52,289.46L392.14,290.08L395.59,290.21L412.66,290.98L415.04,291.52L421.61,292.5L423.64,292.34L427.47,292.99L429.28,293.14L435.99,294.13L437.54,293.96L449.81,296.12L451.02,297.16L452.19,296.2L453.35,296.3L456.66,296.57L457.72,298.21L459.79,298.38L460.79,298.76L463.69,298.65L464.62,298.82L465.54,298.52L466.44,299.44L468.19,299.64L469.05,299.11L473.15,300.61L473.93,299.84L476.21,300.41L476.95,300.21L477.68,299.81L478.4,301.05L487.57,301.06L488.17,300.3L489.35,300.69L489.93,300.53L490.5,301.77L491.07,300.86L491.63,301.59L492.19,301.06L493.82,300.68L494.35,301.3L496.44,301.77L496.94,302L497.95,301.67L498.44,302.46L499.42,301.82L499.9,302.13L500.37,302.31L500.85,301.51L501.78,302.12L502.24,302L504.04,302.72L504.48,302.64L505.35,303.36L505.78,302.55L507.06,304.01L507.47,303.01L507.89,302.02L508.3,303.1L509.51,304.31L509.91,303.38L510.31,304.73L510.7,303.27L511.48,304.27L511.86,304.18L512.24,305.24L512.62,304.72L513,304.91L515.2,304.04L515.56,305.09L516.27,305.77L516.62,305.35L518,305.87L518.34,304.99L519.35,305.99L519.68,306.01L520.01,306.61L520.34,306.04L520.67,305.51L521.63,306.7L521.95,305.14L522.58,306.58L522.9,306.13L523.21,305.63L523.82,306.76L524.13,306.34L524.43,306.42L525.03,307.16L525.33,307.01L525.63,306.75L526.51,306.42L526.8,306.19L527.09,307.71L527.66,306.98L527.95,307.5L528.79,306.5L529.07,307.88L529.35,306.42L529.9,307.25L530.17,307.28L530.44,307.09L530.71,307.98L531.25,307.23L531.52,307.35L531.78,307.56L532.57,307.56L532.83,307.26L534.36,307.46L534.61,306.1L535.36,308.39L535.6,307.45L537.3,308.16L537.53,308.01L538.47,307.84L538.71,309.13L540.08,307.35L540.31,308.7L540.98,308.18L541.2,309.03L541.64,307.34L541.86,308.71L542.3,308.06L542.51,309.07L542.73,308.56L542.95,309.85L543.16,308.77L543.37,309.25L544.01,308.93L544.22,308.52L545.66,309.66L545.87,309.5L546.07,310.12L546.47,309.37L546.67,309.26L547.86,309.55L548.06,308.83L548.44,309.75L548.64,309.48L548.83,306.51L549.59,310.48L549.78,309.59L550.16,310.6L550.53,310.23L550.72,309.55L551.09,310.7L551.27,310.48L551.45,308.8L552,310.85L552.36,310.33L552.54,310.46L553.08,310.12L553.25,308.83L553.43,310.99L554.13,310.58L554.3,310.25L554.65,309.73L554.82,310.81L554.99,310.75L555.17,310.25L555.34,309.99L555.51,310.7L555.84,310.47L556.01,311.07L556.85,309.28L557.01,310.79L557.67,310.41L557.83,310.36L557.99,310.24L558.15,311.24L558.32,310.13L558.96,310.78L559.11,311.26L560.06,310.9L560.21,311.41L560.52,311.8L560.83,311.1L560.98,311.9L561.44,310.12L561.75,311.05L561.9,311.61L562.79,310.91L562.94,311.16L563.38,311.69L563.67,311.42L563.82,311.35L563.96,311.97L564.11,310.33L564.25,311.49L564.4,310.34L564.97,311.84L565.11,311.69L565.25,310.92L565.53,311.83L565.96,311.6L566.09,310.96L566.92,312.46L567.06,311.7L567.74,311.78L567.87,312.3L568.01,308.73L568.54,312.1L568.68,311.71L569.07,312.2L569.21,311.31L569.34,311.73L569.47,311.38L570.25,312.13L570.38,311.7L570.5,311.79L570.76,309.31L570.89,311.98L571.52,312.89L571.65,311.82L572.15,312.95L572.27,311.52L573.01,312.68L573.13,312.52L573.25,312.8L573.38,312.59L573.5,312.7L573.62,310.29L574.1,312.96L574.46,312.24L574.58,312.26L574.7,312.14L574.81,312.79L574.93,309.67L575.75,312.8L575.87,312.44L576.33,313.5L576.45,312.79L576.56,312.54L576.79,313.35L577.24,312.06L577.36,312.87L577.58,313.38L578.14,312.18L578.25,312.84L578.36,310.84L578.91,313.48L579.13,313.31L579.24,312.78L579.46,310.96L579.57,313.48L579.68,312.53L579.78,313.2L579.89,313.46L580,313.2" style="vector-effect: non-scaling-stroke; fill: none; stroke: rgb(31, 119, 180); stroke-opacity: 1; stroke-width: 2px; opacity: 1;"/></g><g class="points"/><g class="text"/></g></g></g><g class="overplot"/><path class="xlines-above crisp" d="M0,0" style="fill: none;"/><path class="ylines-above crisp" d="M0,0" style="fill: none;"/><g class="overlines-above"/><g class="xaxislayer-above"><g class="xtick"><text text-anchor="middle" x="0" y="403" transform="translate(60,0)" style="font-family: 'Open Sans', verdana, arial, sans-serif; font-size: 12px; fill: rgb(68, 68, 68); fill-opacity: 1; white-space: pre;">0</text></g><g class="xtick"><text text-anchor="middle" x="0" y="403" transform="translate(183.45,0)" style="font-family: 'Open Sans', verdana, arial, sans-serif; font-size: 12px; fill: rgb(68, 68, 68); fill-opacity: 1; white-space: pre;">1</text></g><g class="xtick"><text text-anchor="middle" x="0" y="403" transform="translate(306.90999999999997,0)" style="font-family: 'Open Sans', verdana, arial, sans-serif; font-size: 12px; fill: rgb(68, 68, 68); fill-opacity: 1; white-space: pre;">2</text></g><g class="xtick"><text text-anchor="middle" x="0" y="403" transform="translate(430.36,0)" style="font-family: 'Open Sans', verdana, arial, sans-serif; font-size: 12px; fill: rgb(68, 68, 68); fill-opacity: 1; white-space: pre;">3</text></g><g class="xtick"><text text-anchor="middle" x="0" y="403" transform="translate(553.8199999999999,0)" style="font-family: 'Open Sans', verdana, arial, sans-serif; font-size: 12px; fill: rgb(68, 68, 68); fill-opacity: 1; white-space: pre;">4</text></g></g><g class="yaxislayer-above"><g class="ytick"><text text-anchor="end" x="59" y="4.199999999999999" transform="translate(0,353.62)" style="font-family: 'Open Sans', verdana, arial, sans-serif; font-size: 12px; fill: rgb(68, 68, 68); fill-opacity: 1; white-space: pre;">0.5</text></g><g class="ytick"><text text-anchor="end" x="59" y="4.199999999999999" transform="translate(0,277.34000000000003)" style="font-family: 'Open Sans', verdana, arial, sans-serif; font-size: 12px; fill: rgb(68, 68, 68); fill-opacity: 1; white-space: pre;">1</text></g><g class="ytick"><text text-anchor="end" x="59" y="4.199999999999999" transform="translate(0,201.06)" style="font-family: 'Open Sans', verdana, arial, sans-serif; font-size: 12px; fill: rgb(68, 68, 68); fill-opacity: 1; white-space: pre;">1.5</text></g><g class="ytick"><text text-anchor="end" x="59" y="4.199999999999999" transform="translate(0,124.78)" style="font-family: 'Open Sans', verdana, arial, sans-serif; font-size: 12px; fill: rgb(68, 68, 68); fill-opacity: 1; white-space: pre;">2</text></g></g><g class="overaxes-above"/></g></g><g class="polarlayer"/><g class="ternarylayer"/><g class="geolayer"/><g class="pielayer"/><g class="glimages"/><defs id="topdefs-c294c5"><g class="clips"/></defs><g class="layer-above"><g class="imagelayer"/><g class="shapelayer"/></g><g class="infolayer"><g class="g-gtitle"/><g class="g-xtitle"/><g class="g-ytitle"/></g></svg>