<svg class="main-svg" xmlns="http://www.w3.org/2000/svg" xmlns:xlink="http://www.w3.org/1999/xlink" width="700" height="450" style="" viewBox="0 0 700 450"><rect x="0" y="0" width="700" height="450" style="fill: rgb(255, 255, 255); fill-opacity: 1;"/><defs id="defs-76c64f"><g class="clips"><clipPath id="clip76c64fxyplot" class="plotclip"><rect width="580" height="330"/></clipPath><clipPath class="axesclip" id="clip76c64fx"><rect x="60" y="0" width="580" height="450"/></clipPath><clipPath class="axesclip" id="clip76c64fy"><rect x="0" y="60" width="700" height="330"/></clipPath><clipPath class="axesclip" id="clip76c64fxy"><rect x="60" y="60" width="580" height="330"/></clipPath></g><g class="gradients"/></defs><g class="bglayer"/><g class="layer-below"><g class="imagelayer"/><g class="shapelayer"/></g><g class="cartesianlayer"><g class="subplot xy"><g class="layer-subplot"><g class="shapelayer"/><g class="imagelayer"/></g><g class="gridlayer"><g class="x"><path class="xgrid crisp" transform="translate(183.45,0)" d="M0,60v330" style="stroke: rgb(238, 238, 238); stroke-opacity: 1; stroke-width: 1px;"/><path class="xgrid crisp" transform="translate(306.90999999999997,0)" d="M0,60v330" style="stroke: rgb(238, 238, 238); stroke-opacity: 1; stroke-width: 1px;"/><path class="xgrid crisp" transform="translate(430.36,0)" d="M0,60v330" style="stroke: rgb(238, 238, 238); stroke-opacity: 1; stroke-width: 1px;"/><path class="xgrid crisp" transform="translate(553.8199999999999,0)" d="M0,60v330" style="stroke: rgb(238, 238, 238); stroke-opacity: 1; stroke-width: 1px;"/></g><g class="y"><path class="ygrid crisp" transform="translate(0,375.72)" d="M60,0h580" style="stroke: rgb(238, 238, 238); stroke-opacity: 1; stroke-width: 1px;"/><path class="ygrid crisp" transform="translate(0,319.87)" d="M60,0h580" style="stroke: rgb(238, 238, 238); stroke-opacity: 1; stroke-width: 1px;"/><path class="ygrid crisp" transform="translate(0,264.02)" d="M60,0h580" style="stroke: rgb(238, 238, 238); stroke-opacity: 1; stroke-width: 1px;"/><path class="ygrid crisp" transform="translate(0,208.17)" d="M60,0h580" style="stroke: rgb(238, 238, 238); stroke-opacity: 1; stroke-width: 1px;"/><path class="ygrid crisp" transform="translate(0,152.32)" d="M60,0h580" style="stroke: rgb(238, 238, 238); stroke-opacity: 1; stroke-width: 1px;"/><path class="ygrid crisp" transform="translate(0,96.47)" d="M60,0h580" style="stroke: rgb(238, 238, 238); stroke-opacity: 1; stroke-width: 1px;"/></g></g><g class="zerolinelayer"><path class="xzl zl crisp" transform="translate(60,0)" d="M0,60v330" style="stroke: rgb(68, 68, 68); stroke-opacity: 1; stroke-width: 1px;"/></g><path class="xlines-below"/><path class="ylines-below"/><g class="overlines-below"/><g class="xaxislayer-below"/><g class="yaxislayer-below"/><g class="overaxes-below"/><g class="plot" transform="translate(60, 60)" clip-path="url(#clip76c64fxyplot)"><g class="scatterlayer mlayer"><g class="trace scatter tracedc209d" style="stroke-miterlimit: 2; opacity: 1;"><g class="fills"/><g class="errorbars"/><g class="lines"><path class="js-line" d="M0,112.89L247.44,208.14L284.34,260.55L305.99,264.18L321.37,276.6L333.31,282.94L343.06,164.74L351.32,210.06L358.46,231.98L364.77,244.06L370.42,250.6L375.52,254L380.18,255.73L395.59,258.65L398.84,260.33L401.91,231.23L404.8,245.4L407.55,249.83L410.17,251.74L415.04,253.58L417.32,254.17L425.58,255.8L427.47,255.89L437.54,256.66L439.05,256.51L464.62,257.86L465.54,257.89L481.18,259.79L481.86,259.82L486.36,260.27L486.97,257.21L487.57,261.04L488.17,260.57L488.77,260.34L489.35,259.43L489.93,246.6L491.07,253.92L491.63,254.49L494.88,255.06L495.41,255.07L496.94,255.04L497.45,254.11L497.95,251.55L498.44,265.44L499.9,271.48L500.37,272.74L504.04,285.82L504.48,287.89L507.47,301.42L507.89,301.51L509.91,307.7L510.31,307.4L511.86,309.74L512.24,309.86L513.74,310.03L514.11,308.38L515.91,299.79L516.27,306.26L516.97,215.21L517.32,268.57L518.34,298.57L518.68,300.56L519.35,303.82L519.68,298.42L520.67,308.47L520.99,310.15L521.31,98.07L521.63,165.45L521.95,192.01L523.52,261.65L523.82,263.8L524.13,264.01L524.43,263.18L524.73,263.39L525.03,265.7L525.33,268.18L525.63,112.51L526.51,253.75L526.8,254.15L532.83,260.49L533.08,260.53L535.85,262.6L536.09,262.78L537.77,263.83L538.01,264.05L540.53,265.38L540.76,265.91L543.58,267.4L543.8,267.11L544.84,268.18L545.05,267.96L546.47,268.9L546.67,268.72L547.86,269.85L548.06,269.72L549.4,270.74L549.59,270.37L549.78,270.23L550.53,271.59L550.72,270.85L550.9,270.79L552.18,272.66L552.36,271.73L553.43,273.5L553.61,273.15L555.17,276.14L555.34,277.03L556.18,280.09L556.35,281.12L559.27,291.28L559.43,291.48L560.52,294.31L560.68,294.89L567.2,310.31L567.33,263.53L568.41,302.79L568.54,304.42L570.12,312.21L570.25,300.2L570.76,313.02L571.14,312.65L571.27,313.34L572.52,313.45L572.64,312.43L572.89,312.59L573.13,311.76L573.25,311.92L573.38,312.79L573.86,311.57L574.1,312.94L574.22,313.5L574.34,313L574.46,302.88L574.81,297.71L574.93,308.81L575.05,299.87L575.17,273.63L575.29,309.26L575.99,307.81L576.1,306.3L576.33,308.08L576.56,307.76L576.68,305.71L578.03,311.52L578.14,308.93L578.25,310.37L578.8,309.48L578.91,16.5L580,283.18" style="vector-effect: non-scaling-stroke; fill: none; stroke: rgb(31, 119, 180); stroke-opacity: 1; stroke-width: 2px; opacity: 1;"/></g><g class="points"/><g class="text"/></g></g></g><g class="overplot"/><path class="xlines-above crisp" d="M0,0" style="fill: none;"/><path class="ylines-above crisp" d="M0,0" style="fill: none;"/><g class="overlines-above"/><g class="xaxislayer-above"><g class="xtick"><text text-anchor="middle" x="0" y="403" transform="translate(60,0)" style="font-family: 'Open Sans', verdana, arial, sans-serif; font-size: 12px; fill: rgb(68, 68, 68); fill-opacity: 1; white-space: pre;">0</text></g><g class="xtick"><text text-anchor="middle" x="0" y="403" transform="translate(183.45,0)" style="font-family: 'Open Sans', verdana, arial, sans-serif; font-size: 12px; fill: rgb(68, 68, 68); fill-opacity: 1; white-space: pre;">1</text></g><g class="xtick"><text text-anchor="middle" x="0" y="403" transform="translate(306.90999999999997,0)" style="font-family: 'Open Sans', verdana, arial, sans-serif; font-size: 12px; fill: rgb(68, 68, 68); fill-opacity: 1; white-space: pre;">2</text></g><g class="xtick"><text text-anchor="middle" x="0" y="403" transform="translate(430.36,0)" style="font-family: 'Open Sans', verdana, arial, sans-serif; font-size: 12px; fill: rgb(68, 68, 68); fill-opacity: 1; white-space: pre;">3</text></g><g class="xtick"><text text-anchor="middle" x="0" y="403" transform="translate(553.8199999999999,0)" style="font-family: 'Open Sans', verdana, arial, sans-serif; font-size: 12px; fill: rgb(68, 68, 68); fill-opacity: 1; white-space: pre;">4</text></g></g><g class="yaxislayer-above"><g class="ytick"><text text-anchor="end" x="59" y="4.199999999999999" transform="translate(0,375.72)" style="font-family: 'Open Sans', verdana, arial, sans-serif; font-size: 12px; fill: rgb(68, 68, 68); fill-opacity: 1; white-space: pre;">0.5</text></g><g class="ytick"><text text-anchor="end" x="59" y="4.199999999999999" transform="translate(0,319.87)" style="font-family: 'Open Sans', verdana, arial, sans-serif; font-size: 12px; fill: rgb(68, 68, 68); fill-opacity: 1; white-space: pre;">1</text></g><g class="ytick"><text text-anchor="end" x="59" y="4.199999999999999" transform="translate(0,264.02)" style="font-family: 'Open Sans', verdana, arial, sans-serif; font-size: 12px; fill: rgb(68, 68, 68); fill-opacity: 1; white-space: pre;">1.5</text></g><g class="ytick"><text text-anchor="end" x="59" y="4.199999999999999" transform="translate(0,208.17)" style="font-family: 'Open Sans', verdana, arial, sans-serif; font-size: 12px; fill: rgb(68, 68, 68); fill-opacity: 1; white-space: pre;">2</text></g><g class="ytick"><text text-anchor="end" x="59" y="4.199999999999999" transform="translate(0,152.32)" style="font-family: 'Open Sans', verdana, arial, sans-serif; font-size: 12px; fill: rgb(68, 68, 68); fill-opacity: 1; white-space: pre;">2.5</text></g><g class="ytick"><text text-anchor="end" x="59" y="4.199999999999999" transform="translate(0,96.47)" style="font-family: 'Open Sans', verdana, arial, sans-serif; font-size: 12px; fill: rgb(68, 68, 68); fill-opacity: 1; white-space: pre;">3</text></g></g><g class="overaxes-above"/></g></g><g class="polarlayer"/><g class="ternarylayer"/><g class="geolayer"/><g class="pielayer"/><g class="glimages"/><defs id="topdefs-76c64f"><g class="clips"/></defs><g class="layer-above"><g class="imagelayer"/><g class="shapelayer"/></g><g class="infolayer"><g class="g-gtitle"/><g class="g-xtitle"/><g class="g-ytitle"/></g></svg>