<svg class="main-svg" xmlns="http://www.w3.org/2000/svg" xmlns:xlink="http://www.w3.org/1999/xlink" width="700" height="450" style="" viewBox="0 0 700 450"><rect x="0" y="0" width="700" height="450" style="fill: rgb(255, 255, 255); fill-opacity: 1;"/><defs id="defs-317c72"><g class="clips"><clipPath id="clip317c72xyplot" class="plotclip"><rect width="580" height="330"/></clipPath><clipPath class="axesclip" id="clip317c72x"><rect x="60" y="0" width="580" height="450"/></clipPath><clipPath class="axesclip" id="clip317c72y"><rect x="0" y="60" width="700" height="330"/></clipPath><clipPath class="axesclip" id="clip317c72xy"><rect x="60" y="60" width="580" height="330"/></clipPath></g><g class="gradients"/></defs><g class="bglayer"/><g class="layer-below"><g class="imagelayer"/><g class="shapelayer"/></g><g class="cartesianlayer"><g class="subplot xy"><g class="layer-subplot"><g class="shapelayer"/><g class="imagelayer"/></g><g class="gridlayer"><g class="x"><path class="xgrid crisp" transform="translate(176.23000000000002,0)" d="M0,60v330" style="stroke: rgb(238, 238, 238); stroke-opacity: 1; stroke-width: 1px;"/><path class="xgrid crisp" transform="translate(292.46000000000004,0)" d="M0,60v330" style="stroke: rgb(238, 238, 238); stroke-opacity: 1; stroke-width: 1px;"/><path class="xgrid crisp" transform="translate(408.7,0)" d="M0,60v330" style="stroke: rgb(238, 238, 238); stroke-opacity: 1; stroke-width: 1px;"/><path class="xgrid crisp" transform="translate(524.9300000000001,0)" d="M0,60v330" style="stroke: rgb(238, 238, 238); stroke-opacity: 1; stroke-width: 1px;"/></g><g class="y"><path class="ygrid crisp" transform="translate(0,333.5)" d="M60,0h580" style="stroke: rgb(238, 238, 238); stroke-opacity: 1; stroke-width: 1px;"/><path class="ygrid crisp" transform="translate(0,262.78999999999996)" d="M60,0h580" style="stroke: rgb(238, 238, 238); stroke-opacity: 1; stroke-width: 1px;"/><path class="ygrid crisp" transform="translate(0,192.08)" d="M60,0h580" style="stroke: rgb(238, 238, 238); stroke-opacity: 1; stroke-width: 1px;"/><path class="ygrid crisp" transform="translate(0,121.38)" d="M60,0h580" style="stroke: rgb(238, 238, 238); stroke-opacity: 1; stroke-width: 1px;"/></g></g><g class="zerolinelayer"><path class="xzl zl crisp" transform="translate(60,0)" d="M0,60v330" style="stroke: rgb(68, 68, 68); stroke-opacity: 1; stroke-width: 1px;"/></g><path class="xlines-below"/><path class="ylines-below"/><g class="overlines-below"/><g class="xaxislayer-below"/><g class="yaxislayer-below"/><g class="overaxes-below"/><g class="plot" transform="translate(60, 60)" clip-path="url(#clip317c72xyplot)"><g class="scatterlayer mlayer"><g class="trace scatter trace1b1f99" style="stroke-miterlimit: 2; opacity: 1;"><g class="fills"/><g class="errorbars"/><g class="lines"><path class="js-line" d="M0,16.5L1.16,185.97L2.32,239.05L4.65,265.41L5.81,267.28L8.14,269.21L9.3,269.52L15.11,270.25L16.27,258.51L17.43,270.14L18.6,270.24L46.49,271.28L47.66,271.73L49.98,272.07L51.14,272.35L56.95,272.33L58.12,272.12L63.93,272.56L65.09,272.6L75.55,273.2L76.71,273.86L77.88,273.72L79.04,274.37L80.2,275.37L81.36,274.12L82.53,273.92L83.69,274.51L86.01,274.27L87.17,274.46L89.5,275.57L90.66,273.98L92.99,275.3L94.15,274.62L96.47,275.8L97.64,276.69L98.8,275.44L99.96,276.26L102.28,276.68L103.45,275.96L104.61,276.88L105.77,276.07L110.42,277.19L111.58,276.72L112.75,276.61L113.91,277.96L115.07,276.61L116.23,276.99L119.72,277.48L120.88,277.18L123.21,278.42L124.37,278.89L126.69,278.39L127.86,278.8L129.02,278.21L130.18,278.84L132.51,278.44L133.67,279.97L134.83,279.16L135.99,279.67L137.15,278.79L138.32,279.61L139.48,278.59L140.64,279.65L142.97,280.3L144.13,279.03L145.29,279.83L146.45,279.54L151.1,279.69L152.26,280.24L153.43,280.98L154.59,279.32L155.75,280.43L156.91,280.03L159.24,281.26L160.4,280.39L161.56,280.7L162.73,280.23L165.05,280.08L166.21,280.42L167.37,279.97L168.54,281.84L169.7,281L170.86,281.99L173.19,282.13L174.35,282.84L175.51,281.88L176.67,283.11L177.84,282.13L179,283.02L180.16,284.86L181.32,283.54L182.48,284.37L183.65,284.11L184.81,283.92L185.97,284.66L188.3,284.49L189.46,283.47L190.62,285.87L191.78,284.52L192.95,283.92L194.11,284.23L196.43,285.91L197.6,285.69L198.76,285.2L199.92,285.73L203.41,285.64L204.57,287.28L205.73,285.78L206.89,286.33L209.22,287L210.38,286.8L211.54,287.85L212.71,287.31L213.87,287.02L215.03,287.71L216.19,288.63L217.35,286.74L218.52,288.4L219.68,288.57L220.84,288.03L222,288.45L223.17,288.11L224.33,289.06L225.49,288.77L226.65,290.18L227.82,288.6L228.98,290.26L232.46,288.7L233.63,289.82L234.79,290.64L235.95,289.98L237.11,290.42L238.28,289.35L239.44,290.75L240.6,290.8L244.09,291.11L245.25,291.45L248.74,292.16L249.9,291.79L252.22,293.34L253.39,292.4L258.04,293.52L259.2,293.57L260.36,295.02L261.52,294.16L262.69,295.29L263.85,294.29L265.01,293.34L266.17,293.54L268.5,297.1L269.66,294.93L270.82,296.32L271.98,295.65L274.31,296.61L275.47,296.44L276.63,295.64L277.8,297.01L278.96,295.86L280.12,296.62L281.28,296.02L282.44,297.51L288.26,298.19L289.42,296.95L290.58,297.9L291.74,296.81L294.07,298.67L295.23,298.44L298.72,299.04L299.88,300.06L302.2,298.46L303.37,298.98L311.5,299.21L312.67,300.32L313.83,300.66L314.99,300.13L318.48,299.37L319.64,299.71L320.8,301.26L321.96,299.86L323.13,300.77L324.29,300.27L326.61,300.7L327.78,301.81L328.94,301.37L330.1,299.67L331.26,299.14L332.42,301.07L333.59,302.38L334.75,300.68L338.24,302L339.4,300.25L340.56,301.59L341.72,301.58L342.89,302.57L344.05,300.69L345.21,301.72L346.37,300.99L347.54,301.9L348.7,301.43L349.86,301.13L351.02,302.47L352.18,302.14L353.35,303.52L354.51,301.83L355.67,302.19L356.83,303L358,302.23L359.16,303.2L360.32,302.64L361.48,302.57L362.65,303.37L364.97,303.21L366.13,302.49L367.29,304L368.46,303.09L369.62,302.62L370.78,303.66L371.94,304.77L373.11,304.4L374.27,302.63L375.43,303.67L376.59,304L377.76,302.96L378.92,303.71L380.08,303.05L381.24,304.94L382.4,304.27L384.73,303.7L385.89,304.66L388.22,304.43L389.38,305.06L391.7,303.34L392.87,304.26L395.19,304.09L396.35,305.03L399.84,304.97L401,305.97L403.33,305.06L404.49,305.44L405.65,305.38L406.81,306.32L407.98,306.6L409.14,305.29L411.46,304.31L412.63,305.08L413.79,306.08L414.95,305.79L417.27,305.51L418.44,306.62L423.09,305.98L424.25,306.49L426.57,307.33L427.74,306.83L428.9,306.61L430.06,305.17L431.22,306.92L432.38,305.89L433.55,307.19L434.71,306.99L435.87,305.73L437.03,307.09L438.2,306.15L439.36,306.56L441.68,306.93L442.85,306.34L444.01,306.99L445.17,306.66L446.33,307.44L447.49,305.79L452.14,307.35L453.31,306.97L454.47,307.72L455.63,307.16L456.79,308L457.96,307.7L459.12,307.24L460.28,308.2L463.77,307.3L464.93,307.97L466.09,307.06L467.25,307.64L468.42,308.53L469.58,307.06L474.23,307.84L475.39,307.69L477.72,309.12L478.88,307.97L482.36,309.2L483.53,308.11L485.85,309.89L487.01,309.82L489.34,309.08L490.5,309.56L491.66,308.99L492.83,309.91L496.31,308.67L497.47,309.27L499.8,309.58L500.96,308.68L502.12,310.52L503.29,308.85L504.45,308.58L505.61,310.1L509.1,309.99L510.26,309.95L511.42,309.43L512.59,310.68L514.91,309.59L516.07,310.18L519.56,311.11L520.72,309.84L525.37,310.75L526.53,310.97L527.7,311L528.86,310.21L531.18,310.52L532.34,309.63L534.67,311.07L535.83,309.96L536.99,311.51L538.16,310.29L539.32,311.34L540.48,311.28L541.64,310.77L542.81,311.59L543.97,310.96L545.13,312.02L547.45,311.06L548.62,311.15L550.94,312.18L552.1,312.67L553.27,311.1L554.43,311.81L556.75,312.37L557.92,312.48L559.08,310.02L560.24,312.08L562.57,312.88L563.73,308.54L564.89,312.29L566.05,312.05L568.38,311.78L569.54,312.29L574.19,312.06L575.35,311.05L578.84,313.5L580,312.64" style="vector-effect: non-scaling-stroke; fill: none; stroke: rgb(31, 119, 180); stroke-opacity: 1; stroke-width: 2px; opacity: 1;"/></g><g class="points"/><g class="text"/></g></g></g><g class="overplot"/><path class="xlines-above crisp" d="M0,0" style="fill: none;"/><path class="ylines-above crisp" d="M0,0" style="fill: none;"/><g class="overlines-above"/><g class="xaxislayer-above"><g class="xtick"><text text-anchor="middle" x="0" y="403" transform="translate(60,0)" style="font-family: 'Open Sans', verdana, arial, sans-serif; font-size: 12px; fill: rgb(68, 68, 68); fill-opacity: 1; white-space: pre;">0</text></g><g class="xtick"><text text-anchor="middle" x="0" y="403" transform="translate(176.23000000000002,0)" style="font-family: 'Open Sans', verdana, arial, sans-serif; font-size: 12px; fill: rgb(68, 68, 68); fill-opacity: 1; white-space: pre;">10k</text></g><g class="xtick"><text text-anchor="middle" x="0" y="403" transform="translate(292.46000000000004,0)" style="font-family: 'Open Sans', verdana, arial, sans-serif; font-size: 12px; fill: rgb(68, 68, 68); fill-opacity: 1; white-space: pre;">20k</text></g><g class="xtick"><text text-anchor="middle" x="0" y="403" transform="translate(408.7,0)" style="font-family: 'Open Sans', verdana, arial, sans-serif; font-size: 12px; fill: rgb(68, 68, 68); fill-opacity: 1; white-space: pre;">30k</text></g><g class="xtick"><text text-anchor="middle" x="0" y="403" transform="translate(524.9300000000001,0)" style="font-family: 'Open Sans', verdana, arial, sans-serif; font-size: 12px; fill: rgb(68, 68, 68); fill-opacity: 1; white-space: pre;">40k</text></g></g><g class="yaxislayer-above"><g class="ytick"><text text-anchor="end" x="59" y="4.199999999999999" transform="translate(0,333.5)" style="font-family: 'Open Sans', verdana, arial, sans-serif; font-size: 12px; fill: rgb(68, 68, 68); fill-opacity: 1; white-space: pre;">0.5</text></g><g class="ytick"><text text-anchor="end" x="59" y="4.199999999999999" transform="translate(0,262.78999999999996)" style="font-family: 'Open Sans', verdana, arial, sans-serif; font-size: 12px; fill: rgb(68, 68, 68); fill-opacity: 1; white-space: pre;">1</text></g><g class="ytick"><text text-anchor="end" x="59" y="4.199999999999999" transform="translate(0,192.08)" style="font-family: 'Open Sans', verdana, arial, sans-serif; font-size: 12px; fill: rgb(68, 68, 68); fill-opacity: 1; white-space: pre;">1.5</text></g><g class="ytick"><text text-anchor="end" x="59" y="4.199999999999999" transform="translate(0,121.38)" style="font-family: 'Open Sans', verdana, arial, sans-serif; font-size: 12px; fill: rgb(68, 68, 68); fill-opacity: 1; white-space: pre;">2</text></g></g><g class="overaxes-above"/></g></g><g class="polarlayer"/><g class="ternarylayer"/><g class="geolayer"/><g class="pielayer"/><g class="glimages"/><defs id="topdefs-317c72"><g class="clips"/></defs><g class="layer-above"><g class="imagelayer"/><g class="shapelayer"/></g><g class="infolayer"><g class="g-gtitle"/><g class="g-xtitle"/><g class="g-ytitle"/></g></svg>