<svg class="main-svg" xmlns="http://www.w3.org/2000/svg" xmlns:xlink="http://www.w3.org/1999/xlink" width="700" height="450" style="" viewBox="0 0 700 450"><rect x="0" y="0" width="700" height="450" style="fill: rgb(255, 255, 255); fill-opacity: 1;"/><defs id="defs-a09e9a"><g class="clips"><clipPath id="clipa09e9axyplot" class="plotclip"><rect width="580" height="330"/></clipPath><clipPath class="axesclip" id="clipa09e9ax"><rect x="60" y="0" width="580" height="450"/></clipPath><clipPath class="axesclip" id="clipa09e9ay"><rect x="0" y="60" width="700" height="330"/></clipPath><clipPath class="axesclip" id="clipa09e9axy"><rect x="60" y="60" width="580" height="330"/></clipPath></g><g class="gradients"/></defs><g class="bglayer"/><g class="layer-below"><g class="imagelayer"/><g class="shapelayer"/></g><g class="cartesianlayer"><g class="subplot xy"><g class="layer-subplot"><g class="shapelayer"/><g class="imagelayer"/></g><g class="gridlayer"><g class="x"><path class="xgrid crisp" transform="translate(183.45,0)" d="M0,60v330" style="stroke: rgb(238, 238, 238); stroke-opacity: 1; stroke-width: 1px;"/><path class="xgrid crisp" transform="translate(306.90999999999997,0)" d="M0,60v330" style="stroke: rgb(238, 238, 238); stroke-opacity: 1; stroke-width: 1px;"/><path class="xgrid crisp" transform="translate(430.36,0)" d="M0,60v330" style="stroke: rgb(238, 238, 238); stroke-opacity: 1; stroke-width: 1px;"/><path class="xgrid crisp" transform="translate(553.8199999999999,0)" d="M0,60v330" style="stroke: rgb(238, 238, 238); stroke-opacity: 1; stroke-width: 1px;"/></g><g class="y"><path class="ygrid crisp" transform="translate(0,333.5)" d="M60,0h580" style="stroke: rgb(238, 238, 238); stroke-opacity: 1; stroke-width: 1px;"/><path class="ygrid crisp" transform="translate(0,262.78999999999996)" d="M60,0h580" style="stroke: rgb(238, 238, 238); stroke-opacity: 1; stroke-width: 1px;"/><path class="ygrid crisp" transform="translate(0,192.08)" d="M60,0h580" style="stroke: rgb(238, 238, 238); stroke-opacity: 1; stroke-width: 1px;"/><path class="ygrid crisp" transform="translate(0,121.38)" d="M60,0h580" style="stroke: rgb(238, 238, 238); stroke-opacity: 1; stroke-width: 1px;"/></g></g><g class="zerolinelayer"><path class="xzl zl crisp" transform="translate(60,0)" d="M0,60v330" style="stroke: rgb(68, 68, 68); stroke-opacity: 1; stroke-width: 1px;"/></g><path class="xlines-below"/><path class="ylines-below"/><g class="overlines-below"/><g class="xaxislayer-below"/><g class="yaxislayer-below"/><g class="overaxes-below"/><g class="plot" transform="translate(60, 60)" clip-path="url(#clipa09e9axyplot)"><g class="scatterlayer mlayer"><g class="trace scatter trace164329" style="stroke-miterlimit: 2; opacity: 1;"><g class="fills"/><g class="errorbars"/><g class="lines"><path class="js-line" d="M0,16.5L247.44,185.97L284.34,239.05L305.99,258.36L321.37,265.41L343.06,268.59L351.32,269.21L384.47,270.25L388.44,258.51L392.14,270.14L395.59,270.24L444.7,271.28L446.03,271.73L448.58,272.07L449.81,272.35L455.58,272.33L456.66,272.12L461.77,272.56L462.74,272.6L470.73,273.2L471.55,273.86L472.35,273.72L473.15,274.37L473.93,275.37L474.7,274.12L475.46,273.92L476.21,274.51L477.68,274.27L478.4,274.46L479.81,275.57L480.5,273.98L481.86,275.3L482.52,274.62L483.83,275.8L484.47,276.69L485.11,275.44L485.74,276.26L486.97,276.68L487.57,275.96L488.17,276.88L488.77,276.07L491.07,277.19L491.63,276.72L492.19,276.61L492.74,277.96L493.28,276.61L493.82,276.99L494.35,277.26L495.92,277.18L496.44,278.32L498.93,278.8L499.42,278.21L500.37,278.81L500.85,278.44L501.31,279.97L501.78,279.16L502.24,279.67L502.69,278.79L503.15,279.61L503.6,278.59L504.04,279.65L504.92,280.3L505.35,279.03L505.78,279.83L506.21,279.54L506.63,279.43L508.71,280.98L509.11,279.32L509.51,280.43L509.91,280.03L510.31,280.36L510.7,281.26L511.09,280.39L511.48,280.7L512.62,280.08L513,280.42L513.37,279.97L513.74,281.84L514.11,281L514.48,281.99L514.84,281.76L515.56,282.84L515.91,281.88L517.32,284.86L517.66,283.54L518,284.37L518.34,284.11L518.68,283.92L519.68,284.49L520.01,283.47L520.34,285.87L520.67,284.52L520.99,283.92L521.63,285.09L521.95,285.91L522.58,285.2L522.9,285.73L523.21,285.68L523.82,285.64L524.13,287.28L524.43,285.78L524.73,286.33L525.03,286.9L525.63,286.8L525.93,287.85L526.51,287.02L526.8,287.71L527.09,288.63L527.38,286.74L527.66,288.4L527.95,288.57L528.79,288.11L529.07,289.06L529.35,288.77L529.62,290.18L529.9,288.6L530.17,290.26L530.44,289.9L530.98,288.7L531.25,289.82L531.52,290.64L532.04,290.42L532.31,289.35L533.34,291.21L533.6,291.11L535.36,293.34L535.6,292.4L537.53,295.29L537.77,294.29L538.01,293.34L538.24,293.54L538.47,295.84L538.71,297.1L538.94,294.93L539.17,296.32L539.4,295.65L539.86,296.61L540.08,296.44L540.31,295.64L540.53,297.01L540.98,296.62L541.2,296.02L541.64,297.65L542.08,297.39L542.3,298.1L542.51,298.19L542.73,296.95L543.16,296.81L543.58,298.67L543.8,298.44L544.01,298.67L544.22,298.18L544.43,299.04L544.63,300.06L545.05,298.46L545.46,298.98L545.66,299.53L546.67,299.21L546.87,300.32L547.07,300.66L547.27,300.13L547.47,299.83L547.86,299.37L548.06,299.71L548.25,301.26L548.44,299.86L549.02,300.54L549.21,300.7L549.4,301.81L549.78,299.67L549.97,299.14L550.34,302.38L550.9,302.09L551.09,302L551.27,300.25L551.64,301.58L551.82,302.57L552,300.69L552.54,301.9L552.72,301.43L552.9,301.13L553.08,302.47L553.25,302.14L553.43,303.52L553.61,301.83L554.13,302.23L554.3,303.2L554.65,302.57L554.82,303.37L554.99,303.66L555.51,304L555.84,302.62L556.01,303.66L556.18,304.77L556.51,302.63L556.68,303.67L556.85,304L557.01,302.96L557.34,303.05L557.5,304.94L557.99,303.7L558.32,304.52L558.48,304.43L558.64,305.06L558.96,303.34L559.11,304.26L559.27,304.07L559.43,304.09L559.59,305.03L560.06,304.97L560.21,305.97L560.52,305.06L560.83,305.38L560.98,306.32L561.14,306.6L561.29,305.29L561.59,304.31L561.75,305.08L561.9,306.08L562.35,305.51L562.49,306.62L562.94,305.86L563.23,306.49L563.38,306.91L563.53,307.33L563.82,306.61L563.96,305.17L564.4,307.19L564.83,307.09L564.97,306.15L565.96,307.44L566.09,305.79L567.2,308L567.33,307.7L567.6,308.2L567.87,307.14L568.01,307.3L568.14,307.97L568.54,308.53L568.68,307.06L568.81,307.2L568.94,307.9L569.34,307.69L570.12,309.2L570.25,308.11L570.5,309.89L571.01,309.56L571.14,308.99L571.27,309.91L571.65,308.67L571.9,309.7L572.02,309.58L572.27,310.52L572.52,308.58L572.64,310.1L572.76,309.89L573.01,309.99L573.25,309.43L573.38,310.68L573.62,309.59L573.98,311.17L574.1,311.11L574.22,309.84L574.81,310.97L574.93,311L575.4,309.63L575.75,309.96L575.87,311.51L575.99,310.29L576.45,311.59L576.56,310.96L576.68,312.02L576.9,311.06L577.24,312.18L577.36,312.67L578.03,310.02L578.14,312.08L578.25,312.53L578.36,312.88L578.47,308.54L579.24,312.5L579.35,312.34L579.57,311.05L579.68,312.21L579.78,312.87L579.89,313.5L580,312.64" style="vector-effect: non-scaling-stroke; fill: none; stroke: rgb(31, 119, 180); stroke-opacity: 1; stroke-width: 2px; opacity: 1;"/></g><g class="points"/><g class="text"/></g></g></g><g class="overplot"/><path class="xlines-above crisp" d="M0,0" style="fill: none;"/><path class="ylines-above crisp" d="M0,0" style="fill: none;"/><g class="overlines-above"/><g class="xaxislayer-above"><g class="xtick"><text text-anchor="middle" x="0" y="403" transform="translate(60,0)" style="font-family: 'Open Sans', verdana, arial, sans-serif; font-size: 12px; fill: rgb(68, 68, 68); fill-opacity: 1; white-space: pre;">0</text></g><g class="xtick"><text text-anchor="middle" x="0" y="403" transform="translate(183.45,0)" style="font-family: 'Open Sans', verdana, arial, sans-serif; font-size: 12px; fill: rgb(68, 68, 68); fill-opacity: 1; white-space: pre;">1</text></g><g class="xtick"><text text-anchor="middle" x="0" y="403" transform="translate(306.90999999999997,0)" style="font-family: 'Open Sans', verdana, arial, sans-serif; font-size: 12px; fill: rgb(68, 68, 68); fill-opacity: 1; white-space: pre;">2</text></g><g class="xtick"><text text-anchor="middle" x="0" y="403" transform="translate(430.36,0)" style="font-family: 'Open Sans', verdana, arial, sans-serif; font-size: 12px; fill: rgb(68, 68, 68); fill-opacity: 1; white-space: pre;">3</text></g><g class="xtick"><text text-anchor="middle" x="0" y="403" transform="translate(553.8199999999999,0)" style="font-family: 'Open Sans', verdana, arial, sans-serif; font-size: 12px; fill: rgb(68, 68, 68); fill-opacity: 1; white-space: pre;">4</text></g></g><g class="yaxislayer-above"><g class="ytick"><text text-anchor="end" x="59" y="4.199999999999999" transform="translate(0,333.5)" style="font-family: 'Open Sans', verdana, arial, sans-serif; font-size: 12px; fill: rgb(68, 68, 68); fill-opacity: 1; white-space: pre;">0.5</text></g><g class="ytick"><text text-anchor="end" x="59" y="4.199999999999999" transform="translate(0,262.78999999999996)" style="font-family: 'Open Sans', verdana, arial, sans-serif; font-size: 12px; fill: rgb(68, 68, 68); fill-opacity: 1; white-space: pre;">1</text></g><g class="ytick"><text text-anchor="end" x="59" y="4.199999999999999" transform="translate(0,192.08)" style="font-family: 'Open Sans', verdana, arial, sans-serif; font-size: 12px; fill: rgb(68, 68, 68); fill-opacity: 1; white-space: pre;">1.5</text></g><g class="ytick"><text text-anchor="end" x="59" y="4.199999999999999" transform="translate(0,121.38)" style="font-family: 'Open Sans', verdana, arial, sans-serif; font-size: 12px; fill: rgb(68, 68, 68); fill-opacity: 1; white-space: pre;">2</text></g></g><g class="overaxes-above"/></g></g><g class="polarlayer"/><g class="ternarylayer"/><g class="geolayer"/><g class="pielayer"/><g class="glimages"/><defs id="topdefs-a09e9a"><g class="clips"/></defs><g class="layer-above"><g class="imagelayer"/><g class="shapelayer"/></g><g class="infolayer"><g class="g-gtitle"/><g class="g-xtitle"/><g class="g-ytitle"/></g></svg>