<svg class="main-svg" xmlns="http://www.w3.org/2000/svg" xmlns:xlink="http://www.w3.org/1999/xlink" width="700" height="450" style="" viewBox="0 0 700 450"><rect x="0" y="0" width="700" height="450" style="fill: rgb(255, 255, 255); fill-opacity: 1;"/><defs id="defs-4d8f41"><g class="clips"><clipPath id="clip4d8f41xyplot" class="plotclip"><rect width="580" height="330"/></clipPath><clipPath class="axesclip" id="clip4d8f41x"><rect x="60" y="0" width="580" height="450"/></clipPath><clipPath class="axesclip" id="clip4d8f41y"><rect x="0" y="60" width="700" height="330"/></clipPath><clipPath class="axesclip" id="clip4d8f41xy"><rect x="60" y="60" width="580" height="330"/></clipPath></g><g class="gradients"/></defs><g class="bglayer"/><g class="layer-below"><g class="imagelayer"/><g class="shapelayer"/></g><g class="cartesianlayer"><g class="subplot xy"><g class="layer-subplot"><g class="shapelayer"/><g class="imagelayer"/></g><g class="gridlayer"><g class="x"><path class="xgrid crisp" transform="translate(176.23000000000002,0)" d="M0,60v330" style="stroke: rgb(238, 238, 238); stroke-opacity: 1; stroke-width: 1px;"/><path class="xgrid crisp" transform="translate(292.46000000000004,0)" d="M0,60v330" style="stroke: rgb(238, 238, 238); stroke-opacity: 1; stroke-width: 1px;"/><path class="xgrid crisp" transform="translate(408.7,0)" d="M0,60v330" style="stroke: rgb(238, 238, 238); stroke-opacity: 1; stroke-width: 1px;"/><path class="xgrid crisp" transform="translate(524.9300000000001,0)" d="M0,60v330" style="stroke: rgb(238, 238, 238); stroke-opacity: 1; stroke-width: 1px;"/></g><g class="y"><path class="ygrid crisp" transform="translate(0,375.72)" d="M60,0h580" style="stroke: rgb(238, 238, 238); stroke-opacity: 1; stroke-width: 1px;"/><path class="ygrid crisp" transform="translate(0,319.87)" d="M60,0h580" style="stroke: rgb(238, 238, 238); stroke-opacity: 1; stroke-width: 1px;"/><path class="ygrid crisp" transform="translate(0,264.02)" d="M60,0h580" style="stroke: rgb(238, 238, 238); stroke-opacity: 1; stroke-width: 1px;"/><path class="ygrid crisp" transform="translate(0,208.17)" d="M60,0h580" style="stroke: rgb(238, 238, 238); stroke-opacity: 1; stroke-width: 1px;"/><path class="ygrid crisp" transform="translate(0,152.32)" d="M60,0h580" style="stroke: rgb(238, 238, 238); stroke-opacity: 1; stroke-width: 1px;"/><path class="ygrid crisp" transform="translate(0,96.47)" d="M60,0h580" style="stroke: rgb(238, 238, 238); stroke-opacity: 1; stroke-width: 1px;"/></g></g><g class="zerolinelayer"><path class="xzl zl crisp" transform="translate(60,0)" d="M0,60v330" style="stroke: rgb(68, 68, 68); stroke-opacity: 1; stroke-width: 1px;"/></g><path class="xlines-below"/><path class="ylines-below"/><g class="overlines-below"/><g class="xaxislayer-below"/><g class="yaxislayer-below"/><g class="overaxes-below"/><g class="plot" transform="translate(60, 60)" clip-path="url(#clip4d8f41xyplot)"><g class="scatterlayer mlayer"><g class="trace scatter trace82d3d1" style="stroke-miterlimit: 2; opacity: 1;"><g class="fills"/><g class="errorbars"/><g class="lines"><path class="js-line" d="M0,112.89L2.32,260.55L3.49,264.18L5.81,282.94L6.97,164.74L9.3,231.98L10.46,244.06L12.79,254L13.95,255.73L17.43,257.93L18.6,258.65L19.76,260.33L20.92,231.23L22.08,245.4L23.25,249.83L25.57,252.96L26.73,253.58L32.55,255.8L33.71,255.89L40.68,256.66L41.84,256.51L55.79,257.2L56.95,257.3L88.34,259.44L89.5,259.7L96.47,260.14L97.64,260.47L101.12,260.27L102.28,257.21L103.45,261.04L104.61,260.57L106.93,259.43L108.1,246.6L109.26,252.39L110.42,253.92L113.91,254.85L115.07,254.95L123.21,255.04L124.37,254.11L125.53,251.55L126.69,265.44L129.02,270.02L130.18,271.48L137.15,280.09L138.32,282.08L142.97,290.05L144.13,292.26L148.78,301.19L149.94,301.42L151.1,301.51L152.26,303.49L154.59,306.67L155.75,307.37L159.24,308.4L160.4,309.02L167.37,310.27L168.54,310.03L175.51,299.79L176.67,306.26L177.84,272.56L179,215.21L181.32,290.86L182.48,295.5L184.81,300.56L185.97,302.34L187.13,303.82L188.3,298.42L189.46,306.23L190.62,307.72L191.78,308.47L192.95,310.15L194.11,98.07L195.27,165.45L198.76,234.79L199.92,249.18L202.24,261.65L203.41,263.8L204.57,264.01L205.73,263.18L206.89,263.39L208.06,265.7L209.22,268.18L210.38,112.51L211.54,252.5L212.71,253.12L216.19,254.47L217.35,254.64L220.84,256.28L222,256.46L234.79,259.51L235.95,259.63L252.22,262.29L253.39,262.39L266.17,264.13L267.33,264.1L271.98,264.97L273.15,264.76L276.63,265.36L277.8,265.38L280.12,266.07L281.28,265.7L290.58,267L291.74,267.12L294.07,267.4L295.23,267.11L297.56,267.63L298.72,267.72L306.85,268.97L308.02,268.26L310.34,268.9L311.5,268.72L313.83,269.21L314.99,269.32L319.64,269.72L320.8,269.89L321.96,270.21L323.13,269.5L324.29,270.34L325.45,269.78L327.78,270.74L328.94,270.37L331.26,270.74L332.42,270.77L334.75,271.59L335.91,270.85L338.24,271.39L339.4,271.49L344.05,272.07L345.21,272.66L346.37,271.73L347.54,272.48L352.18,272.88L353.35,273.5L355.67,273.4L356.83,273.69L361.48,274.87L362.65,275.74L364.97,276.14L366.13,277.03L370.78,278.74L371.94,280.09L376.59,283.28L377.76,284.11L385.89,288.21L387.05,288.28L394.03,291.28L395.19,291.48L397.52,292.87L398.68,293.18L406.81,295.96L407.98,295.65L410.3,296.94L411.46,296.27L417.27,298.62L418.44,298.51L421.92,299.51L423.09,300.37L424.25,299.73L425.41,300.78L427.74,300.7L428.9,301.66L432.38,302.48L433.55,302.76L448.66,308.49L449.82,308.9L450.98,308.71L452.14,309.57L453.31,309.69L454.47,308.7L456.79,310.31L457.96,263.53L461.44,295.77L462.61,298.5L466.09,301.76L467.25,302.79L469.58,305.08L470.74,305.74L475.39,309.25L476.55,310.19L480.04,311.96L481.2,312.04L482.36,312.21L483.53,300.2L484.69,311.55L485.85,312.63L489.34,312.96L490.5,312.89L491.66,312.65L492.83,313.34L504.45,313.45L505.61,312.43L506.77,312.1L507.94,312.59L509.1,312.58L510.26,311.76L512.59,312.79L513.75,312.09L517.23,311.57L518.4,312.33L520.72,313.5L521.88,313L524.21,298.76L525.37,303.7L526.53,297.71L527.7,308.81L528.86,299.87L530.02,273.63L531.18,309.26L532.34,306.44L533.51,304.48L534.67,306.05L535.83,305.59L536.99,307.82L538.16,307.81L539.32,306.3L540.48,306.62L541.64,308.08L542.81,306.87L543.97,307.76L545.13,305.71L546.29,306.21L547.45,307.69L548.62,306.83L549.78,305.84L550.94,309.4L552.1,309.24L553.27,310.59L555.59,310.55L556.75,311.01L559.08,311.52L560.24,308.93L561.4,310.37L562.57,309.21L564.89,309.62L566.05,309.1L567.21,309.48L568.38,16.5L570.7,162.87L571.86,266.32L573.03,279.44L574.19,280.15L580,283.18" style="vector-effect: non-scaling-stroke; fill: none; stroke: rgb(31, 119, 180); stroke-opacity: 1; stroke-width: 2px; opacity: 1;"/></g><g class="points"/><g class="text"/></g></g></g><g class="overplot"/><path class="xlines-above crisp" d="M0,0" style="fill: none;"/><path class="ylines-above crisp" d="M0,0" style="fill: none;"/><g class="overlines-above"/><g class="xaxislayer-above"><g class="xtick"><text text-anchor="middle" x="0" y="403" transform="translate(60,0)" style="font-family: 'Open Sans', verdana, arial, sans-serif; font-size: 12px; fill: rgb(68, 68, 68); fill-opacity: 1; white-space: pre;">0</text></g><g class="xtick"><text text-anchor="middle" x="0" y="403" transform="translate(176.23000000000002,0)" style="font-family: 'Open Sans', verdana, arial, sans-serif; font-size: 12px; fill: rgb(68, 68, 68); fill-opacity: 1; white-space: pre;">10k</text></g><g class="xtick"><text text-anchor="middle" x="0" y="403" transform="translate(292.46000000000004,0)" style="font-family: 'Open Sans', verdana, arial, sans-serif; font-size: 12px; fill: rgb(68, 68, 68); fill-opacity: 1; white-space: pre;">20k</text></g><g class="xtick"><text text-anchor="middle" x="0" y="403" transform="translate(408.7,0)" style="font-family: 'Open Sans', verdana, arial, sans-serif; font-size: 12px; fill: rgb(68, 68, 68); fill-opacity: 1; white-space: pre;">30k</text></g><g class="xtick"><text text-anchor="middle" x="0" y="403" transform="translate(524.9300000000001,0)" style="font-family: 'Open Sans', verdana, arial, sans-serif; font-size: 12px; fill: rgb(68, 68, 68); fill-opacity: 1; white-space: pre;">40k</text></g></g><g class="yaxislayer-above"><g class="ytick"><text text-anchor="end" x="59" y="4.199999999999999" transform="translate(0,375.72)" style="font-family: 'Open Sans', verdana, arial, sans-serif; font-size: 12px; fill: rgb(68, 68, 68); fill-opacity: 1; white-space: pre;">0.5</text></g><g class="ytick"><text text-anchor="end" x="59" y="4.199999999999999" transform="translate(0,319.87)" style="font-family: 'Open Sans', verdana, arial, sans-serif; font-size: 12px; fill: rgb(68, 68, 68); fill-opacity: 1; white-space: pre;">1</text></g><g class="ytick"><text text-anchor="end" x="59" y="4.199999999999999" transform="translate(0,264.02)" style="font-family: 'Open Sans', verdana, arial, sans-serif; font-size: 12px; fill: rgb(68, 68, 68); fill-opacity: 1; white-space: pre;">1.5</text></g><g class="ytick"><text text-anchor="end" x="59" y="4.199999999999999" transform="translate(0,208.17)" style="font-family: 'Open Sans', verdana, arial, sans-serif; font-size: 12px; fill: rgb(68, 68, 68); fill-opacity: 1; white-space: pre;">2</text></g><g class="ytick"><text text-anchor="end" x="59" y="4.199999999999999" transform="translate(0,152.32)" style="font-family: 'Open Sans', verdana, arial, sans-serif; font-size: 12px; fill: rgb(68, 68, 68); fill-opacity: 1; white-space: pre;">2.5</text></g><g class="ytick"><text text-anchor="end" x="59" y="4.199999999999999" transform="translate(0,96.47)" style="font-family: 'Open Sans', verdana, arial, sans-serif; font-size: 12px; fill: rgb(68, 68, 68); fill-opacity: 1; white-space: pre;">3</text></g></g><g class="overaxes-above"/></g></g><g class="polarlayer"/><g class="ternarylayer"/><g class="geolayer"/><g class="pielayer"/><g class="glimages"/><defs id="topdefs-4d8f41"><g class="clips"/></defs><g class="layer-above"><g class="imagelayer"/><g class="shapelayer"/></g><g class="infolayer"><g class="g-gtitle"/><g class="g-xtitle"/><g class="g-ytitle"/></g></svg>