<svg class="main-svg" xmlns="http://www.w3.org/2000/svg" xmlns:xlink="http://www.w3.org/1999/xlink" width="700" height="450" style="" viewBox="0 0 700 450"><rect x="0" y="0" width="700" height="450" style="fill: rgb(255, 255, 255); fill-opacity: 1;"/><defs id="defs-f8ea57"><g class="clips"><clipPath id="clipf8ea57xyplot" class="plotclip"><rect width="580" height="330"/></clipPath><clipPath class="axesclip" id="clipf8ea57x"><rect x="60" y="0" width="580" height="450"/></clipPath><clipPath class="axesclip" id="clipf8ea57y"><rect x="0" y="60" width="700" height="330"/></clipPath><clipPath class="axesclip" id="clipf8ea57xy"><rect x="60" y="60" width="580" height="330"/></clipPath></g><g class="gradients"/></defs><g class="bglayer"/><g class="layer-below"><g class="imagelayer"/><g class="shapelayer"/></g><g class="cartesianlayer"><g class="subplot xy"><g class="layer-subplot"><g class="shapelayer"/><g class="imagelayer"/></g><g class="gridlayer"><g class="x"><path class="xgrid crisp" transform="translate(183.45,0)" d="M0,60v330" style="stroke: rgb(238, 238, 238); stroke-opacity: 1; stroke-width: 1px;"/><path class="xgrid crisp" transform="translate(306.90999999999997,0)" d="M0,60v330" style="stroke: rgb(238, 238, 238); stroke-opacity: 1; stroke-width: 1px;"/><path class="xgrid crisp" transform="translate(430.36,0)" d="M0,60v330" style="stroke: rgb(238, 238, 238); stroke-opacity: 1; stroke-width: 1px;"/><path class="xgrid crisp" transform="translate(553.8199999999999,0)" d="M0,60v330" style="stroke: rgb(238, 238, 238); stroke-opacity: 1; stroke-width: 1px;"/></g><g class="y"><path class="ygrid crisp" transform="translate(0,354.63)" d="M60,0h580" style="stroke: rgb(238, 238, 238); stroke-opacity: 1; stroke-width: 1px;"/><path class="ygrid crisp" transform="translate(0,278.03)" d="M60,0h580" style="stroke: rgb(238, 238, 238); stroke-opacity: 1; stroke-width: 1px;"/><path class="ygrid crisp" transform="translate(0,201.43)" d="M60,0h580" style="stroke: rgb(238, 238, 238); stroke-opacity: 1; stroke-width: 1px;"/><path class="ygrid crisp" transform="translate(0,124.83)" d="M60,0h580" style="stroke: rgb(238, 238, 238); stroke-opacity: 1; stroke-width: 1px;"/></g></g><g class="zerolinelayer"><path class="xzl zl crisp" transform="translate(60,0)" d="M0,60v330" style="stroke: rgb(68, 68, 68); stroke-opacity: 1; stroke-width: 1px;"/></g><path class="xlines-below"/><path class="ylines-below"/><g class="overlines-below"/><g class="xaxislayer-below"/><g class="yaxislayer-below"/><g class="overaxes-below"/><g class="plot" transform="translate(60, 60)" clip-path="url(#clipf8ea57xyplot)"><g class="scatterlayer mlayer"><g class="trace scatter trace2033b2" style="stroke-miterlimit: 2; opacity: 1;"><g class="fills"/><g class="errorbars"/><g class="lines"><path class="js-line" d="M0,16.5L247.44,199.55L284.34,258.82L305.99,275.14L321.37,282.37L333.31,285.55L343.06,287.1L358.46,289.33L364.77,289.7L398.84,290.97L401.91,291.3L412.66,291.59L415.04,291.86L417.32,291L419.51,291.36L437.54,292.4L439.05,293.26L443.34,293.8L444.7,294.3L448.58,295.2L449.81,294.83L456.66,295.81L457.72,295.03L459.79,295.04L460.79,296.22L462.74,296.31L463.69,294.86L464.62,292.42L465.54,294.12L468.19,294.73L469.05,294.9L471.55,295.45L472.35,294.76L474.7,295.64L475.46,295.41L478.4,296.79L479.11,297.09L480.5,297.3L481.18,298.18L482.52,297.6L483.18,297.33L485.74,298.6L486.36,297.96L488.17,298.37L488.77,298.08L489.35,299.56L489.93,299.08L490.5,299.07L491.07,298.4L491.63,299.17L493.28,300L493.82,299.16L495.41,300.55L495.92,300.67L496.94,300.35L497.45,301.05L497.95,300.03L498.44,300.44L498.93,301.48L499.42,301.87L499.9,301.28L501.31,302.12L501.78,301.93L503.15,301.28L503.6,302.68L504.92,302.99L505.35,301.95L506.63,303.82L507.06,302.86L508.3,304.33L508.71,303.22L509.51,304.14L509.91,303.06L510.7,304.1L511.09,303.26L513.37,305.42L513.74,304.77L514.84,305.26L515.2,304.95L515.91,304.74L516.27,306.5L516.62,306.22L516.97,304.45L518,306.55L518.34,305.95L520.01,307.07L520.34,306.5L521.31,306.82L521.63,306.36L522.9,307.54L523.21,308.46L523.52,308.49L523.82,305.54L524.73,308.18L525.03,307.71L525.33,305.04L525.63,307.3L525.93,307.34L526.51,306.56L526.8,307.53L527.66,307.92L527.95,306.36L528.23,308.64L528.51,307.79L528.79,306.37L529.9,307.83L530.17,307.01L530.44,308.29L530.71,305.85L532.04,309.06L532.31,308.79L532.83,307.05L533.08,308.88L533.85,308.11L534.11,309.51L534.86,307.64L535.11,308.1L535.36,308.89L535.85,307.3L536.09,307.5L536.33,309.24L536.58,307.26L537.06,307.98L537.3,308.14L538.24,308.77L538.47,308.93L539.17,308.32L539.4,309.85L539.63,307.26L540.08,308.51L540.31,308.93L540.53,309.67L540.76,309.09L540.98,307.85L541.2,306.33L541.42,307.96L541.64,308.87L541.86,310.25L542.08,308.62L542.3,309.5L542.51,308.76L542.95,310.8L543.16,308.45L544.01,310.05L544.22,309.03L545.05,311.9L545.46,310.94L545.66,310.83L545.87,312.09L546.07,310.99L546.27,309.15L546.87,311.34L547.07,311.25L547.27,310.8L547.86,310.99L548.06,311.95L548.44,312.72L548.83,310.49L549.02,311.5L549.21,311.2L549.4,312.4L549.78,311.25L549.97,312.8L550.16,311.58L550.34,294.58L551.27,306.73L551.45,306.06L552.18,308.6L552.54,308.06L552.72,308.18L553.08,308.66L553.43,307.58L553.61,309.29L553.96,308.37L554.48,310.55L554.65,309.34L555.51,312.47L555.68,310.98L556.01,310.19L556.51,310.49L556.68,310.64L557.01,309.75L557.34,311.43L557.5,311.34L557.67,311.34L557.83,312.63L558.32,310.95L558.48,310.56L558.64,312.49L559.11,312.07L559.27,310.69L560.06,313.5L560.21,310.56L560.37,312.15L560.83,310.71L560.98,310.71L561.59,313.02L561.75,311.78L561.9,311.15L562.64,312.93L562.79,310.75L563.09,310.03L563.23,312.14L564.68,304.73L564.83,281.02L565.68,299.4L565.82,299.13L566.37,297.25L566.51,295.17L566.79,297.17L566.92,299.42L567.2,296.69L567.33,298.01L567.47,298.76L568.54,302.77L568.68,300.37L568.81,302.28L569.21,298.74L569.34,296.57L569.6,299.78L569.73,292.96L569.86,290.8L569.99,294L570.38,292.11L570.5,293.59L570.63,291.86L571.01,295.7L571.14,295.47L571.39,295.42L572.02,296.88L572.15,297.14L572.39,296.69L574.1,300.86L574.22,300.78L574.34,299.91L574.58,301.08L574.7,300.86L574.81,296.39L575.64,302.17L575.75,301.35L576.45,298.35L576.79,299.61L576.9,300.75L577.13,298.25L577.24,294.2L578.03,299.69L578.25,298.24L578.36,299.15L579.24,301.81L579.35,300.3L579.46,301.73L579.68,300L580,300.62" style="vector-effect: non-scaling-stroke; fill: none; stroke: rgb(31, 119, 180); stroke-opacity: 1; stroke-width: 2px; opacity: 1;"/></g><g class="points"/><g class="text"/></g></g></g><g class="overplot"/><path class="xlines-above crisp" d="M0,0" style="fill: none;"/><path class="ylines-above crisp" d="M0,0" style="fill: none;"/><g class="overlines-above"/><g class="xaxislayer-above"><g class="xtick"><text text-anchor="middle" x="0" y="403" transform="translate(60,0)" style="font-family: 'Open Sans', verdana, arial, sans-serif; font-size: 12px; fill: rgb(68, 68, 68); fill-opacity: 1; white-space: pre;">0</text></g><g class="xtick"><text text-anchor="middle" x="0" y="403" transform="translate(183.45,0)" style="font-family: 'Open Sans', verdana, arial, sans-serif; font-size: 12px; fill: rgb(68, 68, 68); fill-opacity: 1; white-space: pre;">1</text></g><g class="xtick"><text text-anchor="middle" x="0" y="403" transform="translate(306.90999999999997,0)" style="font-family: 'Open Sans', verdana, arial, sans-serif; font-size: 12px; fill: rgb(68, 68, 68); fill-opacity: 1; white-space: pre;">2</text></g><g class="xtick"><text text-anchor="middle" x="0" y="403" transform="translate(430.36,0)" style="font-family: 'Open Sans', verdana, arial, sans-serif; font-size: 12px; fill: rgb(68, 68, 68); fill-opacity: 1; white-space: pre;">3</text></g><g class="xtick"><text text-anchor="middle" x="0" y="403" transform="translate(553.8199999999999,0)" style="font-family: 'Open Sans', verdana, arial, sans-serif; font-size: 12px; fill: rgb(68, 68, 68); fill-opacity: 1; white-space: pre;">4</text></g></g><g class="yaxislayer-above"><g class="ytick"><text text-anchor="end" x="59" y="4.199999999999999" transform="translate(0,354.63)" style="font-family: 'Open Sans', verdana, arial, sans-serif; font-size: 12px; fill: rgb(68, 68, 68); fill-opacity: 1; white-space: pre;">0.5</text></g><g class="ytick"><text text-anchor="end" x="59" y="4.199999999999999" transform="translate(0,278.03)" style="font-family: 'Open Sans', verdana, arial, sans-serif; font-size: 12px; fill: rgb(68, 68, 68); fill-opacity: 1; white-space: pre;">1</text></g><g class="ytick"><text text-anchor="end" x="59" y="4.199999999999999" transform="translate(0,201.43)" style="font-family: 'Open Sans', verdana, arial, sans-serif; font-size: 12px; fill: rgb(68, 68, 68); fill-opacity: 1; white-space: pre;">1.5</text></g><g class="ytick"><text text-anchor="end" x="59" y="4.199999999999999" transform="translate(0,124.83)" style="font-family: 'Open Sans', verdana, arial, sans-serif; font-size: 12px; fill: rgb(68, 68, 68); fill-opacity: 1; white-space: pre;">2</text></g></g><g class="overaxes-above"/></g></g><g class="polarlayer"/><g class="ternarylayer"/><g class="geolayer"/><g class="pielayer"/><g class="glimages"/><defs id="topdefs-f8ea57"><g class="clips"/></defs><g class="layer-above"><g class="imagelayer"/><g class="shapelayer"/></g><g class="infolayer"><g class="g-gtitle"/><g class="g-xtitle"/><g class="g-ytitle"/></g></svg>