<svg class="main-svg" xmlns="http://www.w3.org/2000/svg" xmlns:xlink="http://www.w3.org/1999/xlink" width="700" height="450" style="" viewBox="0 0 700 450"><rect x="0" y="0" width="700" height="450" style="fill: rgb(255, 255, 255); fill-opacity: 1;"/><defs id="defs-dbf8ab"><g class="clips"><clipPath id="clipdbf8abxyplot" class="plotclip"><rect width="580" height="330"/></clipPath><clipPath class="axesclip" id="clipdbf8abx"><rect x="60" y="0" width="580" height="450"/></clipPath><clipPath class="axesclip" id="clipdbf8aby"><rect x="0" y="60" width="700" height="330"/></clipPath><clipPath class="axesclip" id="clipdbf8abxy"><rect x="60" y="60" width="580" height="330"/></clipPath></g><g class="gradients"/></defs><g class="bglayer"/><g class="layer-below"><g class="imagelayer"/><g class="shapelayer"/></g><g class="cartesianlayer"><g class="subplot xy"><g class="layer-subplot"><g class="shapelayer"/><g class="imagelayer"/></g><g class="gridlayer"><g class="x"><path class="xgrid crisp" transform="translate(176.23000000000002,0)" d="M0,60v330" style="stroke: rgb(238, 238, 238); stroke-opacity: 1; stroke-width: 1px;"/><path class="xgrid crisp" transform="translate(292.46000000000004,0)" d="M0,60v330" style="stroke: rgb(238, 238, 238); stroke-opacity: 1; stroke-width: 1px;"/><path class="xgrid crisp" transform="translate(408.7,0)" d="M0,60v330" style="stroke: rgb(238, 238, 238); stroke-opacity: 1; stroke-width: 1px;"/><path class="xgrid crisp" transform="translate(524.9300000000001,0)" d="M0,60v330" style="stroke: rgb(238, 238, 238); stroke-opacity: 1; stroke-width: 1px;"/></g><g class="y"><path class="ygrid crisp" transform="translate(0,354.15)" d="M60,0h580" style="stroke: rgb(238, 238, 238); stroke-opacity: 1; stroke-width: 1px;"/><path class="ygrid crisp" transform="translate(0,277.68)" d="M60,0h580" style="stroke: rgb(238, 238, 238); stroke-opacity: 1; stroke-width: 1px;"/><path class="ygrid crisp" transform="translate(0,201.22)" d="M60,0h580" style="stroke: rgb(238, 238, 238); stroke-opacity: 1; stroke-width: 1px;"/><path class="ygrid crisp" transform="translate(0,124.75)" d="M60,0h580" style="stroke: rgb(238, 238, 238); stroke-opacity: 1; stroke-width: 1px;"/></g></g><g class="zerolinelayer"><path class="xzl zl crisp" transform="translate(60,0)" d="M0,60v330" style="stroke: rgb(68, 68, 68); stroke-opacity: 1; stroke-width: 1px;"/></g><path class="xlines-below"/><path class="ylines-below"/><g class="overlines-below"/><g class="xaxislayer-below"/><g class="yaxislayer-below"/><g class="overaxes-below"/><g class="plot" transform="translate(60, 60)" clip-path="url(#clipdbf8abxyplot)"><g class="scatterlayer mlayer"><g class="trace scatter traceec02e6" style="stroke-miterlimit: 2; opacity: 1;"><g class="fills"/><g class="errorbars"/><g class="lines"><path class="js-line" d="M0,16.5L2.32,267.94L3.49,278.89L5.81,286.78L6.97,288.61L11.62,290.12L12.79,290.24L16.27,290.48L17.43,290.65L20.92,290.68L22.08,289.7L24.41,290.73L25.57,290.81L41.84,291.75L43.01,292.48L47.66,292.67L48.82,292.72L61.6,293.49L62.77,292.76L63.93,293.53L65.09,292.95L66.25,292.93L67.41,293.81L69.74,292.55L70.9,293.17L72.06,293.82L73.23,293.14L75.55,292.68L76.71,293.9L79.04,293.16L80.2,293.36L86.01,293.94L87.17,293.04L90.66,293.01L91.82,293.58L94.15,293.18L95.31,293.6L98.8,293.31L99.96,293.97L101.12,293.01L102.28,293.12L103.45,293.85L104.61,293.47L108.1,293.79L109.26,293.51L110.42,293.47L111.58,294.48L112.75,295.02L113.91,294.56L116.23,294.24L117.39,295.36L118.56,295.57L119.72,294.92L122.04,295.73L123.21,295.91L126.69,295.82L127.86,295.72L129.02,296.12L130.18,295.61L134.83,296.55L135.99,295.68L137.15,296.52L138.32,296.3L139.48,296.07L140.64,296.93L142.97,295.83L144.13,296.35L147.62,297.15L148.78,295.91L149.94,297.03L151.1,296.81L152.26,296.68L153.43,297.43L154.59,296.35L155.75,296.97L156.91,297.26L158.08,296.16L160.4,297.29L161.56,297.27L168.54,296.8L169.7,297.75L170.86,298.51L172.02,298.29L175.51,298.65L176.67,299.16L179,298.55L180.16,298.99L181.32,300.38L182.48,299.51L183.65,299.48L184.81,298.67L185.97,300.13L187.13,300.1L188.3,299.18L189.46,300.04L191.78,299.45L192.95,300.36L194.11,299.34L195.27,299.82L196.43,299.75L197.6,301.18L198.76,299.83L199.92,300.58L202.24,300.46L203.41,300.34L210.38,300.19L211.54,301.42L215.03,301.44L216.19,302.12L217.35,301.15L218.52,301.97L219.68,301.62L220.84,302.34L222,302.76L223.17,301.68L224.33,302.7L225.49,302.47L228.98,302.12L230.14,303.02L231.3,302.67L232.46,303.84L233.63,302.95L234.79,303.34L235.95,302.47L237.11,303.38L239.44,302.43L240.6,303.73L241.76,303.51L242.93,304.06L247.58,303.75L248.74,303.63L249.9,305.3L251.06,304.84L253.39,303.79L254.55,303.8L255.71,305.23L256.87,304.21L260.36,304.75L261.52,304.29L267.33,304.75L268.5,304.26L269.66,305.38L270.82,305.25L271.98,304.52L273.15,305.06L276.63,305.34L277.8,305.2L278.96,304.2L280.12,304.54L281.28,306.05L282.44,304.93L284.77,304.97L285.93,305.99L288.26,304.89L289.42,305.03L292.91,304.78L294.07,305.61L298.72,305.94L299.88,305L301.04,305.94L302.2,305.7L306.85,305.63L308.02,305.85L309.18,305.71L310.34,306.44L311.5,305.34L312.67,305.68L313.83,305.17L314.99,306.01L317.31,306.93L318.48,306.78L321.96,305.39L323.13,306.06L324.29,306.37L325.45,305.89L326.61,305.24L327.78,306.12L328.94,307.28L330.1,305.83L331.26,305.67L332.42,306.57L334.75,306.75L335.91,305.75L338.24,307.8L339.4,306.2L346.37,307.09L347.54,306.59L348.7,306.05L349.86,307.08L353.35,307.03L354.51,307.01L355.67,307.18L356.83,306.39L358,306.12L359.16,307.49L360.32,306.8L361.48,307.69L362.65,306.78L363.81,306.97L367.29,307.91L368.46,306.36L373.11,307.21L374.27,307.98L375.43,307.09L376.59,307.49L377.76,308.06L378.92,307.55L380.08,306.36L381.24,307.3L384.73,308.13L385.89,307.54L387.05,308.25L388.22,307.97L390.54,307.05L391.7,307.67L392.87,307.68L394.03,306.39L395.19,307.79L396.35,307.73L398.68,307.04L399.84,307.89L401,308.13L402.16,307.18L403.33,308.05L404.49,307.74L406.81,308.49L407.98,307.71L409.14,308.8L410.3,308.17L411.46,307.57L412.63,308.67L418.44,308.09L419.6,308.62L420.76,309.24L421.92,308.32L423.09,308.06L424.25,308.82L428.9,310.02L430.06,309.03L431.22,304.61L432.38,309.55L433.55,309.95L434.71,309.26L435.87,308.56L437.03,309.21L439.36,308.83L440.52,309.56L442.85,309.83L444.01,309.18L446.33,310.33L447.49,309.52L448.66,310.23L449.82,308.75L452.14,310.42L453.31,309.71L454.47,308.87L455.63,310.73L456.79,310.7L457.96,309.61L459.12,310.49L460.28,309.91L463.77,311.03L464.93,310.61L467.25,310.5L468.42,310.85L469.58,311.13L470.74,310.27L475.39,310.29L476.55,310.91L477.72,310.58L478.88,311.53L480.04,310.91L481.2,311.21L482.36,310.34L483.53,311.12L484.69,309.95L485.85,311.47L487.01,310.03L488.18,311.43L489.34,310.38L490.5,311.34L491.66,310.49L492.83,310.78L493.99,311.68L495.15,310.94L499.8,311.25L500.96,310.63L502.12,310.69L503.29,311.63L505.61,310.45L506.77,311.09L509.1,311.69L510.26,310.17L511.42,311.45L512.59,311.48L517.23,312.28L518.4,311.58L520.72,311.26L521.88,312.31L523.05,311.91L524.21,310.66L526.53,312.5L527.7,312.2L531.18,312.18L532.34,310.98L533.51,312.28L534.67,311.5L538.16,311.47L539.32,310.67L541.64,312.43L542.81,311.35L545.13,311.87L546.29,311.12L547.45,312.75L548.62,311.16L552.1,312.61L553.27,311.93L554.43,312.95L555.59,312.63L556.75,312.08L557.92,312.42L559.08,312.24L560.24,313.5L563.73,311.49L564.89,312.86L567.21,311.35L568.38,312.66L569.54,313.12L570.7,311.99L573.03,313.41L574.19,311.78L575.35,312.76L576.51,312.71L577.68,311.46L578.84,312.77L580,313.4" style="vector-effect: non-scaling-stroke; fill: none; stroke: rgb(31, 119, 180); stroke-opacity: 1; stroke-width: 2px; opacity: 1;"/></g><g class="points"/><g class="text"/></g></g></g><g class="overplot"/><path class="xlines-above crisp" d="M0,0" style="fill: none;"/><path class="ylines-above crisp" d="M0,0" style="fill: none;"/><g class="overlines-above"/><g class="xaxislayer-above"><g class="xtick"><text text-anchor="middle" x="0" y="403" transform="translate(60,0)" style="font-family: 'Open Sans', verdana, arial, sans-serif; font-size: 12px; fill: rgb(68, 68, 68); fill-opacity: 1; white-space: pre;">0</text></g><g class="xtick"><text text-anchor="middle" x="0" y="403" transform="translate(176.23000000000002,0)" style="font-family: 'Open Sans', verdana, arial, sans-serif; font-size: 12px; fill: rgb(68, 68, 68); fill-opacity: 1; white-space: pre;">10k</text></g><g class="xtick"><text text-anchor="middle" x="0" y="403" transform="translate(292.46000000000004,0)" style="font-family: 'Open Sans', verdana, arial, sans-serif; font-size: 12px; fill: rgb(68, 68, 68); fill-opacity: 1; white-space: pre;">20k</text></g><g class="xtick"><text text-anchor="middle" x="0" y="403" transform="translate(408.7,0)" style="font-family: 'Open Sans', verdana, arial, sans-serif; font-size: 12px; fill: rgb(68, 68, 68); fill-opacity: 1; white-space: pre;">30k</text></g><g class="xtick"><text text-anchor="middle" x="0" y="403" transform="translate(524.9300000000001,0)" style="font-family: 'Open Sans', verdana, arial, sans-serif; font-size: 12px; fill: rgb(68, 68, 68); fill-opacity: 1; white-space: pre;">40k</text></g></g><g class="yaxislayer-above"><g class="ytick"><text text-anchor="end" x="59" y="4.199999999999999" transform="translate(0,354.15)" style="font-family: 'Open Sans', verdana, arial, sans-serif; font-size: 12px; fill: rgb(68, 68, 68); fill-opacity: 1; white-space: pre;">0.5</text></g><g class="ytick"><text text-anchor="end" x="59" y="4.199999999999999" transform="translate(0,277.68)" style="font-family: 'Open Sans', verdana, arial, sans-serif; font-size: 12px; fill: rgb(68, 68, 68); fill-opacity: 1; white-space: pre;">1</text></g><g class="ytick"><text text-anchor="end" x="59" y="4.199999999999999" transform="translate(0,201.22)" style="font-family: 'Open Sans', verdana, arial, sans-serif; font-size: 12px; fill: rgb(68, 68, 68); fill-opacity: 1; white-space: pre;">1.5</text></g><g class="ytick"><text text-anchor="end" x="59" y="4.199999999999999" transform="translate(0,124.75)" style="font-family: 'Open Sans', verdana, arial, sans-serif; font-size: 12px; fill: rgb(68, 68, 68); fill-opacity: 1; white-space: pre;">2</text></g></g><g class="overaxes-above"/></g></g><g class="polarlayer"/><g class="ternarylayer"/><g class="geolayer"/><g class="pielayer"/><g class="glimages"/><defs id="topdefs-dbf8ab"><g class="clips"/></defs><g class="layer-above"><g class="imagelayer"/><g class="shapelayer"/></g><g class="infolayer"><g class="g-gtitle"/><g class="g-xtitle"/><g class="g-ytitle"/></g></svg>